<?xml version="1.0" encoding="utf-8" standalone="no"?>
<!DOCTYPE svg PUBLIC "-//W3C//DTD SVG 1.1//EN"
  "http://www.w3.org/Graphics/SVG/1.1/DTD/svg11.dtd">
<svg xmlns:xlink="http://www.w3.org/1999/xlink" width="817.92pt" height="290.88pt" viewBox="0 0 817.92 290.88" xmlns="http://www.w3.org/2000/svg" version="1.1">
 <metadata>
  <rdf:RDF xmlns:dc="http://purl.org/dc/elements/1.1/" xmlns:cc="http://creativecommons.org/ns#" xmlns:rdf="http://www.w3.org/1999/02/22-rdf-syntax-ns#">
   <cc:Work>
    <dc:type rdf:resource="http://purl.org/dc/dcmitype/StillImage"/>
    <dc:date>2026-09-11T12:06:09.587652</dc:date>
    <dc:format>image/svg+xml</dc:format>
    <dc:creator>
     <cc:Agent>
      <dc:title>Matplotlib v3.11.1, https://matplotlib.org/</dc:title>
     </cc:Agent>
    </dc:creator>
   </cc:Work>
  </rdf:RDF>
 </metadata>
 <defs>
  <style type="text/css">*{stroke-linejoin: round; stroke-linecap: butt}</style>
 </defs>
 <g id="figure_1">
  <g id="patch_1">
   <path d="M 0 290.88 
L 817.92 290.88 
L 817.92 0 
L 0 0 
z
" style="fill: #f6f8fa"/>
  </g>
  <g id="axes_1">
   <g id="patch_2">
    <path d="M 70.56 132.640049 
Q 70.56 108.000023 70.56 84.567474 
" clip-path="url(#p532287d616)" style="fill: none; stroke: #d4dde7; stroke-width: 1.08; stroke-linecap: round"/>
    <path d="M 68.36 88.967474 
L 70.56 84.567474 
L 72.76 88.967474 
z
" clip-path="url(#p532287d616)" style="fill: #d4dde7; stroke: #d4dde7; stroke-width: 1.08; stroke-linecap: round"/>
   </g>
   <g id="patch_3">
    <path d="M 56.16 131.832 
C 56.90469 131.832 57.61898 132.127869 58.145556 132.654444 
C 58.672131 133.18102 58.968 133.89531 58.968 134.64 
C 58.968 135.38469 58.672131 136.09898 58.145556 136.625556 
C 57.61898 137.152131 56.90469 137.448 56.16 137.448 
C 55.41531 137.448 54.70102 137.152131 54.174444 136.625556 
C 53.647869 136.09898 53.352 135.38469 53.352 134.64 
C 53.352 133.89531 53.647869 133.18102 54.174444 132.654444 
C 54.70102 132.127869 55.41531 131.832 56.16 131.832 
z
" clip-path="url(#p532287d616)" style="fill: #f6f8fa; stroke: #142233; stroke-width: 1.44; stroke-linejoin: miter"/>
   </g>
   <g id="patch_4">
    <path d="M 61.074 134.64 
C 61.074 136.066848 60.555923 137.436715 59.634723 138.445649 
C 58.713522 139.454582 57.462774 140.022 56.16 140.022 
C 54.857226 140.022 53.606478 139.454582 52.685277 138.445649 
C 51.764077 137.436715 51.246 136.066848 51.246 134.64 
" clip-path="url(#p532287d616)" style="fill: none; stroke: #142233; stroke-width: 1.5; stroke-linejoin: miter"/>
   </g>
   <g id="patch_5">
    <path d="M 84.96 131.832 
C 85.70469 131.832 86.41898 132.127869 86.945556 132.654444 
C 87.472131 133.18102 87.768 133.89531 87.768 134.64 
C 87.768 135.38469 87.472131 136.09898 86.945556 136.625556 
C 86.41898 137.152131 85.70469 137.448 84.96 137.448 
C 84.21531 137.448 83.50102 137.152131 82.974444 136.625556 
C 82.447869 136.09898 82.152 135.38469 82.152 134.64 
C 82.152 133.89531 82.447869 133.18102 82.974444 132.654444 
C 83.50102 132.127869 84.21531 131.832 84.96 131.832 
z
" clip-path="url(#p532287d616)" style="fill: #f6f8fa; stroke: #142233; stroke-width: 1.44; stroke-linejoin: miter"/>
   </g>
   <g id="patch_6">
    <path d="M 89.874 134.64 
C 89.874 136.066848 89.355923 137.436715 88.434723 138.445649 
C 87.513522 139.454582 86.262774 140.022 84.96 140.022 
C 83.657226 140.022 82.406478 139.454582 81.485277 138.445649 
C 80.564077 137.436715 80.046 136.066848 80.046 134.64 
" clip-path="url(#p532287d616)" style="fill: none; stroke: #142233; stroke-width: 1.5; stroke-linejoin: miter"/>
   </g>
   <g id="patch_7">
    <path d="M 203.04 132.640049 
Q 203.04 108.000023 203.04 84.567474 
" clip-path="url(#p532287d616)" style="fill: none; stroke: #d4dde7; stroke-width: 1.08; stroke-linecap: round"/>
    <path d="M 200.84 88.967474 
L 203.04 84.567474 
L 205.24 88.967474 
z
" clip-path="url(#p532287d616)" style="fill: #d4dde7; stroke: #d4dde7; stroke-width: 1.08; stroke-linecap: round"/>
   </g>
   <g id="patch_8">
    <path d="M 188.64 131.832 
C 189.38469 131.832 190.09898 132.127869 190.625556 132.654444 
C 191.152131 133.18102 191.448 133.89531 191.448 134.64 
C 191.448 135.38469 191.152131 136.09898 190.625556 136.625556 
C 190.09898 137.152131 189.38469 137.448 188.64 137.448 
C 187.89531 137.448 187.18102 137.152131 186.654444 136.625556 
C 186.127869 136.09898 185.832 135.38469 185.832 134.64 
C 185.832 133.89531 186.127869 133.18102 186.654444 132.654444 
C 187.18102 132.127869 187.89531 131.832 188.64 131.832 
z
" clip-path="url(#p532287d616)" style="fill: #f6f8fa; stroke: #142233; stroke-width: 1.44; stroke-linejoin: miter"/>
   </g>
   <g id="patch_9">
    <path d="M 193.554 134.64 
C 193.554 136.066848 193.035923 137.436715 192.114723 138.445649 
C 191.193522 139.454582 189.942774 140.022 188.64 140.022 
C 187.337226 140.022 186.086478 139.454582 185.165277 138.445649 
C 184.244077 137.436715 183.726 136.066848 183.726 134.64 
" clip-path="url(#p532287d616)" style="fill: none; stroke: #142233; stroke-width: 1.5; stroke-linejoin: miter"/>
   </g>
   <g id="patch_10">
    <path d="M 217.44 131.832 
C 218.18469 131.832 218.89898 132.127869 219.425556 132.654444 
C 219.952131 133.18102 220.248 133.89531 220.248 134.64 
C 220.248 135.38469 219.952131 136.09898 219.425556 136.625556 
C 218.89898 137.152131 218.18469 137.448 217.44 137.448 
C 216.69531 137.448 215.98102 137.152131 215.454444 136.625556 
C 214.927869 136.09898 214.632 135.38469 214.632 134.64 
C 214.632 133.89531 214.927869 133.18102 215.454444 132.654444 
C 215.98102 132.127869 216.69531 131.832 217.44 131.832 
z
" clip-path="url(#p532287d616)" style="fill: #f6f8fa; stroke: #142233; stroke-width: 1.44; stroke-linejoin: miter"/>
   </g>
   <g id="patch_11">
    <path d="M 222.354 134.64 
C 222.354 136.066848 221.835923 137.436715 220.914723 138.445649 
C 219.993522 139.454582 218.742774 140.022 217.44 140.022 
C 216.137226 140.022 214.886478 139.454582 213.965277 138.445649 
C 213.044077 137.436715 212.526 136.066848 212.526 134.64 
" clip-path="url(#p532287d616)" style="fill: none; stroke: #142233; stroke-width: 1.5; stroke-linejoin: miter"/>
   </g>
   <g id="patch_12">
    <path d="M 37.584 71.28 
L 42.768 71.28 
L 50.256 64.368 
L 50.256 89.712 
L 42.768 82.8 
L 37.584 82.8 
z
" clip-path="url(#p532287d616)" style="fill: #e7eff9; stroke: #1f5fae; stroke-width: 1.6; stroke-linejoin: miter"/>
   </g>
   <g id="patch_13">
    <path d="M 54.723967 71.028834 
C 55.743637 72.705819 56.304 74.837696 56.304 77.04 
C 56.304 79.242304 55.743637 81.374181 54.723967 83.051166 
" clip-path="url(#p532287d616)" style="fill: none; stroke: #1f5fae; stroke-width: 1.5; stroke-linejoin: miter"/>
   </g>
   <g id="patch_14">
    <path d="M 57.574905 67.631219 
C 59.17091 70.256065 60.048 73.592915 60.048 77.04 
C 60.048 80.487085 59.17091 83.823935 57.574905 86.448781 
" clip-path="url(#p532287d616)" style="fill: none; stroke: #1f5fae; stroke-width: 1.5; stroke-linejoin: miter"/>
   </g>
   <g id="patch_15">
    <path d="M 214.704 71.28 
L 219.888 71.28 
L 227.376 64.368 
L 227.376 89.712 
L 219.888 82.8 
L 214.704 82.8 
z
" clip-path="url(#p532287d616)" style="fill: #e7eff9; stroke: #1f5fae; stroke-width: 1.6; stroke-linejoin: miter"/>
   </g>
   <g id="patch_16">
    <path d="M 231.843967 71.028834 
C 232.863637 72.705819 233.424 74.837696 233.424 77.04 
C 233.424 79.242304 232.863637 81.374181 231.843967 83.051166 
" clip-path="url(#p532287d616)" style="fill: none; stroke: #1f5fae; stroke-width: 1.5; stroke-linejoin: miter"/>
   </g>
   <g id="patch_17">
    <path d="M 234.694905 67.631219 
C 236.29091 70.256065 237.168 73.592915 237.168 77.04 
C 237.168 80.487085 236.29091 83.823935 234.694905 86.448781 
" clip-path="url(#p532287d616)" style="fill: none; stroke: #1f5fae; stroke-width: 1.5; stroke-linejoin: miter"/>
   </g>
   <g id="patch_18">
    <path d="M 118.638369 96.48 
Q 135.719354 96.48 151.190371 96.48 
" clip-path="url(#p532287d616)" style="fill: none; stroke: #a95018; stroke-width: 1.44; stroke-linecap: round"/>
    <path d="M 145.190371 93.48 
L 151.190371 96.48 
L 145.190371 99.48 
z
" clip-path="url(#p532287d616)" style="fill: #a95018; stroke: #a95018; stroke-width: 1.44; stroke-linecap: round"/>
   </g>
   <g id="patch_19">
    <path d="M 343.44 132.640049 
Q 343.44 108.000023 343.44 84.567474 
" clip-path="url(#p532287d616)" style="fill: none; stroke: #d4dde7; stroke-width: 1.08; stroke-linecap: round"/>
    <path d="M 341.24 88.967474 
L 343.44 84.567474 
L 345.64 88.967474 
z
" clip-path="url(#p532287d616)" style="fill: #d4dde7; stroke: #d4dde7; stroke-width: 1.08; stroke-linecap: round"/>
   </g>
   <g id="patch_20">
    <path d="M 329.04 131.832 
C 329.78469 131.832 330.49898 132.127869 331.025556 132.654444 
C 331.552131 133.18102 331.848 133.89531 331.848 134.64 
C 331.848 135.38469 331.552131 136.09898 331.025556 136.625556 
C 330.49898 137.152131 329.78469 137.448 329.04 137.448 
C 328.29531 137.448 327.58102 137.152131 327.054444 136.625556 
C 326.527869 136.09898 326.232 135.38469 326.232 134.64 
C 326.232 133.89531 326.527869 133.18102 327.054444 132.654444 
C 327.58102 132.127869 328.29531 131.832 329.04 131.832 
z
" clip-path="url(#p532287d616)" style="fill: #f6f8fa; stroke: #142233; stroke-width: 1.44; stroke-linejoin: miter"/>
   </g>
   <g id="patch_21">
    <path d="M 333.954 134.64 
C 333.954 136.066848 333.435923 137.436715 332.514723 138.445649 
C 331.593522 139.454582 330.342774 140.022 329.04 140.022 
C 327.737226 140.022 326.486478 139.454582 325.565277 138.445649 
C 324.644077 137.436715 324.126 136.066848 324.126 134.64 
" clip-path="url(#p532287d616)" style="fill: none; stroke: #142233; stroke-width: 1.5; stroke-linejoin: miter"/>
   </g>
   <g id="patch_22">
    <path d="M 357.84 131.832 
C 358.58469 131.832 359.29898 132.127869 359.825556 132.654444 
C 360.352131 133.18102 360.648 133.89531 360.648 134.64 
C 360.648 135.38469 360.352131 136.09898 359.825556 136.625556 
C 359.29898 137.152131 358.58469 137.448 357.84 137.448 
C 357.09531 137.448 356.38102 137.152131 355.854444 136.625556 
C 355.327869 136.09898 355.032 135.38469 355.032 134.64 
C 355.032 133.89531 355.327869 133.18102 355.854444 132.654444 
C 356.38102 132.127869 357.09531 131.832 357.84 131.832 
z
" clip-path="url(#p532287d616)" style="fill: #f6f8fa; stroke: #142233; stroke-width: 1.44; stroke-linejoin: miter"/>
   </g>
   <g id="patch_23">
    <path d="M 362.754 134.64 
C 362.754 136.066848 362.235923 137.436715 361.314723 138.445649 
C 360.393522 139.454582 359.142774 140.022 357.84 140.022 
C 356.537226 140.022 355.286478 139.454582 354.365277 138.445649 
C 353.444077 137.436715 352.926 136.066848 352.926 134.64 
" clip-path="url(#p532287d616)" style="fill: none; stroke: #142233; stroke-width: 1.5; stroke-linejoin: miter"/>
   </g>
   <g id="patch_24">
    <path d="M 475.2 132.640049 
Q 475.2 108.000023 475.2 84.567474 
" clip-path="url(#p532287d616)" style="fill: none; stroke: #d4dde7; stroke-width: 1.08; stroke-linecap: round"/>
    <path d="M 473 88.967474 
L 475.2 84.567474 
L 477.4 88.967474 
z
" clip-path="url(#p532287d616)" style="fill: #d4dde7; stroke: #d4dde7; stroke-width: 1.08; stroke-linecap: round"/>
   </g>
   <g id="patch_25">
    <path d="M 460.8 131.832 
C 461.54469 131.832 462.25898 132.127869 462.785556 132.654444 
C 463.312131 133.18102 463.608 133.89531 463.608 134.64 
C 463.608 135.38469 463.312131 136.09898 462.785556 136.625556 
C 462.25898 137.152131 461.54469 137.448 460.8 137.448 
C 460.05531 137.448 459.34102 137.152131 458.814444 136.625556 
C 458.287869 136.09898 457.992 135.38469 457.992 134.64 
C 457.992 133.89531 458.287869 133.18102 458.814444 132.654444 
C 459.34102 132.127869 460.05531 131.832 460.8 131.832 
z
" clip-path="url(#p532287d616)" style="fill: #f6f8fa; stroke: #142233; stroke-width: 1.44; stroke-linejoin: miter"/>
   </g>
   <g id="patch_26">
    <path d="M 465.714 134.64 
C 465.714 136.066848 465.195923 137.436715 464.274723 138.445649 
C 463.353522 139.454582 462.102774 140.022 460.8 140.022 
C 459.497226 140.022 458.246478 139.454582 457.325277 138.445649 
C 456.404077 137.436715 455.886 136.066848 455.886 134.64 
" clip-path="url(#p532287d616)" style="fill: none; stroke: #142233; stroke-width: 1.5; stroke-linejoin: miter"/>
   </g>
   <g id="patch_27">
    <path d="M 489.6 131.832 
C 490.34469 131.832 491.05898 132.127869 491.585556 132.654444 
C 492.112131 133.18102 492.408 133.89531 492.408 134.64 
C 492.408 135.38469 492.112131 136.09898 491.585556 136.625556 
C 491.05898 137.152131 490.34469 137.448 489.6 137.448 
C 488.85531 137.448 488.14102 137.152131 487.614444 136.625556 
C 487.087869 136.09898 486.792 135.38469 486.792 134.64 
C 486.792 133.89531 487.087869 133.18102 487.614444 132.654444 
C 488.14102 132.127869 488.85531 131.832 489.6 131.832 
z
" clip-path="url(#p532287d616)" style="fill: #f6f8fa; stroke: #142233; stroke-width: 1.44; stroke-linejoin: miter"/>
   </g>
   <g id="patch_28">
    <path d="M 494.514 134.64 
C 494.514 136.066848 493.995923 137.436715 493.074723 138.445649 
C 492.153522 139.454582 490.902774 140.022 489.6 140.022 
C 488.297226 140.022 487.046478 139.454582 486.125277 138.445649 
C 485.204077 137.436715 484.686 136.066848 484.686 134.64 
" clip-path="url(#p532287d616)" style="fill: none; stroke: #142233; stroke-width: 1.5; stroke-linejoin: miter"/>
   </g>
   <g id="patch_29">
    <path d="M 345.744 71.28 
L 350.928 71.28 
L 358.416 64.368 
L 358.416 89.712 
L 350.928 82.8 
L 345.744 82.8 
z
" clip-path="url(#p532287d616)" style="fill: #e7eff9; stroke: #1f5fae; stroke-width: 1.6; stroke-linejoin: miter"/>
   </g>
   <g id="patch_30">
    <path d="M 362.883967 71.028834 
C 363.903637 72.705819 364.464 74.837696 364.464 77.04 
C 364.464 79.242304 363.903637 81.374181 362.883967 83.051166 
" clip-path="url(#p532287d616)" style="fill: none; stroke: #1f5fae; stroke-width: 1.5; stroke-linejoin: miter"/>
   </g>
   <g id="patch_31">
    <path d="M 365.734905 67.631219 
C 367.33091 70.256065 368.208 73.592915 368.208 77.04 
C 368.208 80.487085 367.33091 83.823935 365.734905 86.448781 
" clip-path="url(#p532287d616)" style="fill: none; stroke: #1f5fae; stroke-width: 1.5; stroke-linejoin: miter"/>
   </g>
   <g id="patch_32">
    <path d="M 486.72 64.8 
C 488.180739 64.8 489.581846 65.380358 490.614744 66.413256 
C 491.647642 67.446154 492.228 68.847261 492.228 70.308 
C 492.228 71.768739 491.647642 73.169846 490.614744 74.202744 
C 489.581846 75.235642 488.180739 75.816 486.72 75.816 
C 485.259261 75.816 483.858154 75.235642 482.825256 74.202744 
C 481.792358 73.169846 481.212 71.768739 481.212 70.308 
C 481.212 68.847261 481.792358 67.446154 482.825256 66.413256 
C 483.858154 65.380358 485.259261 64.8 486.72 64.8 
z
" clip-path="url(#p532287d616)" style="fill: #f6f8fa; stroke: #008b9a; stroke-width: 1.44; stroke-linejoin: miter"/>
   </g>
   <g id="patch_33">
    <path d="M 476.316 88.668 
C 476.316 86.234246 477.412881 83.897683 479.363261 82.17676 
C 481.313641 80.455836 483.961746 79.488 486.72 79.488 
C 489.478254 79.488 492.126359 80.455836 494.076739 82.17676 
C 496.027119 83.897683 497.124 86.234246 497.124 88.668 
" clip-path="url(#p532287d616)" style="fill: none; stroke: #008b9a; stroke-width: 1.6; stroke-linejoin: miter"/>
   </g>
   <g id="patch_34">
    <path d="M 497.637367 69.182633 
C 499.07147 70.616736 499.878 72.563872 499.878 74.592 
C 499.878 76.620128 499.07147 78.567264 497.637367 80.001367 
" clip-path="url(#p532287d616)" style="fill: none; stroke: #008b9a; stroke-width: 1.4; stroke-linejoin: miter"/>
   </g>
   <g id="patch_35">
    <path d="M 500.017488 66.802512 
C 502.082597 68.86762 503.244 71.671496 503.244 74.592 
C 503.244 77.512504 502.082597 80.31638 500.017488 82.381488 
" clip-path="url(#p532287d616)" style="fill: none; stroke: #008b9a; stroke-width: 1.4; stroke-linejoin: miter"/>
   </g>
   <g id="patch_36">
    <path d="M 390.798105 96.48 
Q 408.237317 96.48 424.066559 96.48 
" clip-path="url(#p532287d616)" style="fill: none; stroke: #a95018; stroke-width: 1.44; stroke-linecap: round"/>
    <path d="M 418.066559 93.48 
L 424.066559 96.48 
L 418.066559 99.48 
z
" clip-path="url(#p532287d616)" style="fill: #a95018; stroke: #a95018; stroke-width: 1.44; stroke-linecap: round"/>
   </g>
   <g id="patch_37">
    <path d="M 586.638303 91.44 
Q 686.160631 91.44 784.55598 91.44 
" clip-path="url(#p532287d616)" style="fill: none; stroke: #586879; stroke-width: 1.008; stroke-linecap: round"/>
    <path d="M 779.75598 89.04 
L 784.55598 91.44 
L 779.75598 93.84 
z
" clip-path="url(#p532287d616)" style="fill: #586879; stroke: #586879; stroke-width: 1.008; stroke-linecap: round"/>
   </g>
   <g id="patch_38">
    <path d="M 586.638303 141.84 
Q 686.160631 141.84 784.55598 141.84 
" clip-path="url(#p532287d616)" style="fill: none; stroke: #586879; stroke-width: 1.008; stroke-linecap: round"/>
    <path d="M 779.75598 139.44 
L 784.55598 141.84 
L 779.75598 144.24 
z
" clip-path="url(#p532287d616)" style="fill: #586879; stroke: #586879; stroke-width: 1.008; stroke-linecap: round"/>
   </g>
   <g id="patch_39">
    <path d="M 600.48 64.8 
L 668.88 64.8 
L 668.88 88.56 
L 600.48 88.56 
z
" clip-path="url(#p532287d616)" style="fill: #1f5fae; fill-opacity: 0.12; stroke: #1f5fae; stroke-width: 1.008; stroke-linejoin: miter"/>
   </g>
   <g id="patch_40">
    <path d="M 697.68 64.8 
L 766.08 64.8 
L 766.08 88.56 
L 697.68 88.56 
z
" clip-path="url(#p532287d616)" style="fill: #008b9a; fill-opacity: 0.12; stroke: #008b9a; stroke-width: 1.008; stroke-linejoin: miter"/>
   </g>
   <g id="patch_41">
    <path d="M 600.48 115.2 
L 668.88 115.2 
L 668.88 138.96 
L 600.48 138.96 
z
" clip-path="url(#p532287d616)" style="fill: #008b9a; fill-opacity: 0.12; stroke: #008b9a; stroke-width: 1.008; stroke-linejoin: miter"/>
   </g>
   <g id="patch_42">
    <path d="M 697.68 115.2 
L 766.08 115.2 
L 766.08 138.96 
L 697.68 138.96 
z
" clip-path="url(#p532287d616)" style="fill: #1f5fae; fill-opacity: 0.12; stroke: #1f5fae; stroke-width: 1.008; stroke-linejoin: miter"/>
   </g>
   <g id="patch_43">
    <path d="M 578.88 99.199512 
Q 578.88 106.201679 578.88 111.593876 
" clip-path="url(#p532287d616)" style="fill: none; stroke: #a95018; stroke-width: 1.44; stroke-linecap: round"/>
    <path d="M 581.28 106.793876 
L 578.88 111.593876 
L 576.48 106.793876 
z
" clip-path="url(#p532287d616)" style="fill: #a95018; stroke: #a95018; stroke-width: 1.44; stroke-linecap: round"/>
   </g>
   <g id="patch_44">
    <path d="M 136.8 177.683906 
Q 136.8 184.320578 136.8 189.508278 
" clip-path="url(#p532287d616)" style="fill: none; stroke: #586879; stroke-width: 1.296; stroke-linecap: round"/>
    <path d="M 139.2 184.708278 
L 136.8 189.508278 
L 134.4 184.708278 
z
" clip-path="url(#p532287d616)" style="fill: #586879; stroke: #586879; stroke-width: 1.296; stroke-linecap: round"/>
   </g>
   <g id="patch_45">
    <path d="M 68.4 205.92 
L 77.28 205.92 
L 77.28 214.08 
L 68.4 214.08 
z
" clip-path="url(#p532287d616)" style="fill: #1f5fae; fill-opacity: 0.16; stroke: #d4dde7; stroke-width: 0.504; stroke-linejoin: miter"/>
   </g>
   <g id="patch_46">
    <path d="M 68.4 216.24 
L 77.28 216.24 
L 77.28 224.4 
L 68.4 224.4 
z
" clip-path="url(#p532287d616)" style="fill: #1f5fae; fill-opacity: 0.28; stroke: #d4dde7; stroke-width: 0.504; stroke-linejoin: miter"/>
   </g>
   <g id="patch_47">
    <path d="M 68.4 226.56 
L 77.28 226.56 
L 77.28 234.72 
L 68.4 234.72 
z
" clip-path="url(#p532287d616)" style="fill: #1f5fae; fill-opacity: 0.4; stroke: #d4dde7; stroke-width: 0.504; stroke-linejoin: miter"/>
   </g>
   <g id="patch_48">
    <path d="M 79.44 205.92 
L 88.32 205.92 
L 88.32 214.08 
L 79.44 214.08 
z
" clip-path="url(#p532287d616)" style="fill: #1f5fae; fill-opacity: 0.52; stroke: #d4dde7; stroke-width: 0.504; stroke-linejoin: miter"/>
   </g>
   <g id="patch_49">
    <path d="M 79.44 216.24 
L 88.32 216.24 
L 88.32 224.4 
L 79.44 224.4 
z
" clip-path="url(#p532287d616)" style="fill: #1f5fae; fill-opacity: 0.64; stroke: #d4dde7; stroke-width: 0.504; stroke-linejoin: miter"/>
   </g>
   <g id="patch_50">
    <path d="M 79.44 226.56 
L 88.32 226.56 
L 88.32 234.72 
L 79.44 234.72 
z
" clip-path="url(#p532287d616)" style="fill: #1f5fae; fill-opacity: 0.76; stroke: #d4dde7; stroke-width: 0.504; stroke-linejoin: miter"/>
   </g>
   <g id="patch_51">
    <path d="M 90.48 205.92 
L 99.36 205.92 
L 99.36 214.08 
L 90.48 214.08 
z
" clip-path="url(#p532287d616)" style="fill: #1f5fae; fill-opacity: 0.16; stroke: #d4dde7; stroke-width: 0.504; stroke-linejoin: miter"/>
   </g>
   <g id="patch_52">
    <path d="M 90.48 216.24 
L 99.36 216.24 
L 99.36 224.4 
L 90.48 224.4 
z
" clip-path="url(#p532287d616)" style="fill: #1f5fae; fill-opacity: 0.28; stroke: #d4dde7; stroke-width: 0.504; stroke-linejoin: miter"/>
   </g>
   <g id="patch_53">
    <path d="M 90.48 226.56 
L 99.36 226.56 
L 99.36 234.72 
L 90.48 234.72 
z
" clip-path="url(#p532287d616)" style="fill: #1f5fae; fill-opacity: 0.4; stroke: #d4dde7; stroke-width: 0.504; stroke-linejoin: miter"/>
   </g>
   <g id="patch_54">
    <path d="M 107.842588 221.04 
Q 118.440283 221.04 127.669504 221.04 
" clip-path="url(#p532287d616)" style="fill: none; stroke: #008b9a; stroke-width: 1.224; stroke-linecap: round"/>
    <path d="M 122.869504 218.64 
L 127.669504 221.04 
L 122.869504 223.44 
z
" clip-path="url(#p532287d616)" style="fill: #008b9a; stroke: #008b9a; stroke-width: 1.224; stroke-linecap: round"/>
   </g>
   <g id="patch_55">
    <path d="M 141.84 205.2 
L 203.76 205.2 
L 203.76 236.88 
L 141.84 236.88 
z
" clip-path="url(#p532287d616)" style="fill: #f6f8fa; stroke: #008b9a; stroke-width: 1.44; stroke-linejoin: miter"/>
   </g>
   <g id="patch_56">
    <path d="M 408.96 177.683906 
Q 408.96 184.320578 408.96 189.508278 
" clip-path="url(#p532287d616)" style="fill: none; stroke: #586879; stroke-width: 1.296; stroke-linecap: round"/>
    <path d="M 411.36 184.708278 
L 408.96 189.508278 
L 406.56 184.708278 
z
" clip-path="url(#p532287d616)" style="fill: #586879; stroke: #586879; stroke-width: 1.296; stroke-linecap: round"/>
   </g>
   <g id="patch_57">
    <path d="M 340.56 205.92 
L 349.44 205.92 
L 349.44 214.08 
L 340.56 214.08 
z
" clip-path="url(#p532287d616)" style="fill: #1f5fae; fill-opacity: 0.16; stroke: #d4dde7; stroke-width: 0.504; stroke-linejoin: miter"/>
   </g>
   <g id="patch_58">
    <path d="M 340.56 216.24 
L 349.44 216.24 
L 349.44 224.4 
L 340.56 224.4 
z
" clip-path="url(#p532287d616)" style="fill: #1f5fae; fill-opacity: 0.28; stroke: #d4dde7; stroke-width: 0.504; stroke-linejoin: miter"/>
   </g>
   <g id="patch_59">
    <path d="M 340.56 226.56 
L 349.44 226.56 
L 349.44 234.72 
L 340.56 234.72 
z
" clip-path="url(#p532287d616)" style="fill: #1f5fae; fill-opacity: 0.4; stroke: #d4dde7; stroke-width: 0.504; stroke-linejoin: miter"/>
   </g>
   <g id="patch_60">
    <path d="M 351.6 205.92 
L 360.48 205.92 
L 360.48 214.08 
L 351.6 214.08 
z
" clip-path="url(#p532287d616)" style="fill: #1f5fae; fill-opacity: 0.52; stroke: #d4dde7; stroke-width: 0.504; stroke-linejoin: miter"/>
   </g>
   <g id="patch_61">
    <path d="M 351.6 216.24 
L 360.48 216.24 
L 360.48 224.4 
L 351.6 224.4 
z
" clip-path="url(#p532287d616)" style="fill: #1f5fae; fill-opacity: 0.64; stroke: #d4dde7; stroke-width: 0.504; stroke-linejoin: miter"/>
   </g>
   <g id="patch_62">
    <path d="M 351.6 226.56 
L 360.48 226.56 
L 360.48 234.72 
L 351.6 234.72 
z
" clip-path="url(#p532287d616)" style="fill: #1f5fae; fill-opacity: 0.76; stroke: #d4dde7; stroke-width: 0.504; stroke-linejoin: miter"/>
   </g>
   <g id="patch_63">
    <path d="M 362.64 205.92 
L 371.52 205.92 
L 371.52 214.08 
L 362.64 214.08 
z
" clip-path="url(#p532287d616)" style="fill: #1f5fae; fill-opacity: 0.16; stroke: #d4dde7; stroke-width: 0.504; stroke-linejoin: miter"/>
   </g>
   <g id="patch_64">
    <path d="M 362.64 216.24 
L 371.52 216.24 
L 371.52 224.4 
L 362.64 224.4 
z
" clip-path="url(#p532287d616)" style="fill: #1f5fae; fill-opacity: 0.28; stroke: #d4dde7; stroke-width: 0.504; stroke-linejoin: miter"/>
   </g>
   <g id="patch_65">
    <path d="M 362.64 226.56 
L 371.52 226.56 
L 371.52 234.72 
L 362.64 234.72 
z
" clip-path="url(#p532287d616)" style="fill: #1f5fae; fill-opacity: 0.4; stroke: #d4dde7; stroke-width: 0.504; stroke-linejoin: miter"/>
   </g>
   <g id="patch_66">
    <path d="M 380.002588 221.04 
Q 390.600283 221.04 399.829504 221.04 
" clip-path="url(#p532287d616)" style="fill: none; stroke: #008b9a; stroke-width: 1.224; stroke-linecap: round"/>
    <path d="M 395.029504 218.64 
L 399.829504 221.04 
L 395.029504 223.44 
z
" clip-path="url(#p532287d616)" style="fill: #008b9a; stroke: #008b9a; stroke-width: 1.224; stroke-linecap: round"/>
   </g>
   <g id="patch_67">
    <path d="M 414 205.2 
L 475.92 205.2 
L 475.92 236.88 
L 414 236.88 
z
" clip-path="url(#p532287d616)" style="fill: #f6f8fa; stroke: #008b9a; stroke-width: 1.44; stroke-linejoin: miter"/>
   </g>
   <g id="patch_68">
    <path d="M 681.84 177.683906 
Q 681.84 184.320578 681.84 189.508278 
" clip-path="url(#p532287d616)" style="fill: none; stroke: #586879; stroke-width: 1.296; stroke-linecap: round"/>
    <path d="M 684.24 184.708278 
L 681.84 189.508278 
L 679.44 184.708278 
z
" clip-path="url(#p532287d616)" style="fill: #586879; stroke: #586879; stroke-width: 1.296; stroke-linecap: round"/>
   </g>
   <g id="patch_69">
    <path d="M 613.44 205.92 
L 622.32 205.92 
L 622.32 214.08 
L 613.44 214.08 
z
" clip-path="url(#p532287d616)" style="fill: #1f5fae; fill-opacity: 0.16; stroke: #d4dde7; stroke-width: 0.504; stroke-linejoin: miter"/>
   </g>
   <g id="patch_70">
    <path d="M 613.44 216.24 
L 622.32 216.24 
L 622.32 224.4 
L 613.44 224.4 
z
" clip-path="url(#p532287d616)" style="fill: #1f5fae; fill-opacity: 0.28; stroke: #d4dde7; stroke-width: 0.504; stroke-linejoin: miter"/>
   </g>
   <g id="patch_71">
    <path d="M 613.44 226.56 
L 622.32 226.56 
L 622.32 234.72 
L 613.44 234.72 
z
" clip-path="url(#p532287d616)" style="fill: #1f5fae; fill-opacity: 0.4; stroke: #d4dde7; stroke-width: 0.504; stroke-linejoin: miter"/>
   </g>
   <g id="patch_72">
    <path d="M 624.48 205.92 
L 633.36 205.92 
L 633.36 214.08 
L 624.48 214.08 
z
" clip-path="url(#p532287d616)" style="fill: #1f5fae; fill-opacity: 0.52; stroke: #d4dde7; stroke-width: 0.504; stroke-linejoin: miter"/>
   </g>
   <g id="patch_73">
    <path d="M 624.48 216.24 
L 633.36 216.24 
L 633.36 224.4 
L 624.48 224.4 
z
" clip-path="url(#p532287d616)" style="fill: #1f5fae; fill-opacity: 0.64; stroke: #d4dde7; stroke-width: 0.504; stroke-linejoin: miter"/>
   </g>
   <g id="patch_74">
    <path d="M 624.48 226.56 
L 633.36 226.56 
L 633.36 234.72 
L 624.48 234.72 
z
" clip-path="url(#p532287d616)" style="fill: #1f5fae; fill-opacity: 0.76; stroke: #d4dde7; stroke-width: 0.504; stroke-linejoin: miter"/>
   </g>
   <g id="patch_75">
    <path d="M 635.52 205.92 
L 644.4 205.92 
L 644.4 214.08 
L 635.52 214.08 
z
" clip-path="url(#p532287d616)" style="fill: #1f5fae; fill-opacity: 0.16; stroke: #d4dde7; stroke-width: 0.504; stroke-linejoin: miter"/>
   </g>
   <g id="patch_76">
    <path d="M 635.52 216.24 
L 644.4 216.24 
L 644.4 224.4 
L 635.52 224.4 
z
" clip-path="url(#p532287d616)" style="fill: #1f5fae; fill-opacity: 0.28; stroke: #d4dde7; stroke-width: 0.504; stroke-linejoin: miter"/>
   </g>
   <g id="patch_77">
    <path d="M 635.52 226.56 
L 644.4 226.56 
L 644.4 234.72 
L 635.52 234.72 
z
" clip-path="url(#p532287d616)" style="fill: #1f5fae; fill-opacity: 0.4; stroke: #d4dde7; stroke-width: 0.504; stroke-linejoin: miter"/>
   </g>
   <g id="patch_78">
    <path d="M 652.882588 221.04 
Q 663.480283 221.04 672.709504 221.04 
" clip-path="url(#p532287d616)" style="fill: none; stroke: #008b9a; stroke-width: 1.224; stroke-linecap: round"/>
    <path d="M 667.909504 218.64 
L 672.709504 221.04 
L 667.909504 223.44 
z
" clip-path="url(#p532287d616)" style="fill: #008b9a; stroke: #008b9a; stroke-width: 1.224; stroke-linecap: round"/>
   </g>
   <g id="patch_79">
    <path d="M 686.88 205.2 
L 748.8 205.2 
L 748.8 236.88 
L 686.88 236.88 
z
" clip-path="url(#p532287d616)" style="fill: #f6f8fa; stroke: #008b9a; stroke-width: 1.44; stroke-linejoin: miter"/>
   </g>
   <g id="line2d_1">
    <path d="M 272.88 11.52 
L 272.88 280.08 
" clip-path="url(#p532287d616)" style="fill: none; stroke: #d4dde7; stroke-width: 1.08; stroke-linecap: round"/>
   </g>
   <g id="line2d_2">
    <path d="M 545.04 11.52 
L 545.04 280.08 
" clip-path="url(#p532287d616)" style="fill: none; stroke: #d4dde7; stroke-width: 1.08; stroke-linecap: round"/>
   </g>
   <g id="line2d_3">
    <path d="M 30.24 134.64 
L 110.88 134.64 
" clip-path="url(#p532287d616)" style="fill: none; stroke: #586879; stroke-width: 1.296; stroke-linecap: round"/>
   </g>
   <g id="line2d_4">
    <path d="M 56.16 139.788 
L 56.16 144 
" clip-path="url(#p532287d616)" style="fill: none; stroke: #142233; stroke-width: 1.296; stroke-linecap: round"/>
   </g>
   <g id="line2d_5">
    <path d="M 52.416 144 
L 59.904 144 
" clip-path="url(#p532287d616)" style="fill: none; stroke: #142233; stroke-width: 1.296; stroke-linecap: round"/>
   </g>
   <g id="line2d_6">
    <path d="M 84.96 139.788 
L 84.96 144 
" clip-path="url(#p532287d616)" style="fill: none; stroke: #142233; stroke-width: 1.296; stroke-linecap: round"/>
   </g>
   <g id="line2d_7">
    <path d="M 81.216 144 
L 88.704 144 
" clip-path="url(#p532287d616)" style="fill: none; stroke: #142233; stroke-width: 1.296; stroke-linecap: round"/>
   </g>
   <g id="line2d_8">
    <path d="M 162.72 134.64 
L 243.36 134.64 
" clip-path="url(#p532287d616)" style="fill: none; stroke: #586879; stroke-width: 1.296; stroke-linecap: round"/>
   </g>
   <g id="line2d_9">
    <path d="M 188.64 139.788 
L 188.64 144 
" clip-path="url(#p532287d616)" style="fill: none; stroke: #142233; stroke-width: 1.296; stroke-linecap: round"/>
   </g>
   <g id="line2d_10">
    <path d="M 184.896 144 
L 192.384 144 
" clip-path="url(#p532287d616)" style="fill: none; stroke: #142233; stroke-width: 1.296; stroke-linecap: round"/>
   </g>
   <g id="line2d_11">
    <path d="M 217.44 139.788 
L 217.44 144 
" clip-path="url(#p532287d616)" style="fill: none; stroke: #142233; stroke-width: 1.296; stroke-linecap: round"/>
   </g>
   <g id="line2d_12">
    <path d="M 213.696 144 
L 221.184 144 
" clip-path="url(#p532287d616)" style="fill: none; stroke: #142233; stroke-width: 1.296; stroke-linecap: round"/>
   </g>
   <g id="line2d_13">
    <path d="M 46.8 90.72 
L 70.56 131.76 
" clip-path="url(#p532287d616)" style="fill: none; stroke-dasharray: 3.7296,1.6128; stroke-dashoffset: 0; stroke: #1f5fae; stroke-width: 1.008"/>
   </g>
   <g id="line2d_14">
    <path d="M 223.92 90.72 
L 203.04 131.76 
" clip-path="url(#p532287d616)" style="fill: none; stroke-dasharray: 3.7296,1.6128; stroke-dashoffset: 0; stroke: #1f5fae; stroke-width: 1.008"/>
   </g>
   <g id="line2d_15">
    <path d="M 303.12 134.64 
L 383.76 134.64 
" clip-path="url(#p532287d616)" style="fill: none; stroke: #586879; stroke-width: 1.296; stroke-linecap: round"/>
   </g>
   <g id="line2d_16">
    <path d="M 329.04 139.788 
L 329.04 144 
" clip-path="url(#p532287d616)" style="fill: none; stroke: #142233; stroke-width: 1.296; stroke-linecap: round"/>
   </g>
   <g id="line2d_17">
    <path d="M 325.296 144 
L 332.784 144 
" clip-path="url(#p532287d616)" style="fill: none; stroke: #142233; stroke-width: 1.296; stroke-linecap: round"/>
   </g>
   <g id="line2d_18">
    <path d="M 357.84 139.788 
L 357.84 144 
" clip-path="url(#p532287d616)" style="fill: none; stroke: #142233; stroke-width: 1.296; stroke-linecap: round"/>
   </g>
   <g id="line2d_19">
    <path d="M 354.096 144 
L 361.584 144 
" clip-path="url(#p532287d616)" style="fill: none; stroke: #142233; stroke-width: 1.296; stroke-linecap: round"/>
   </g>
   <g id="line2d_20">
    <path d="M 434.88 134.64 
L 515.52 134.64 
" clip-path="url(#p532287d616)" style="fill: none; stroke: #586879; stroke-width: 1.296; stroke-linecap: round"/>
   </g>
   <g id="line2d_21">
    <path d="M 460.8 139.788 
L 460.8 144 
" clip-path="url(#p532287d616)" style="fill: none; stroke: #142233; stroke-width: 1.296; stroke-linecap: round"/>
   </g>
   <g id="line2d_22">
    <path d="M 457.056 144 
L 464.544 144 
" clip-path="url(#p532287d616)" style="fill: none; stroke: #142233; stroke-width: 1.296; stroke-linecap: round"/>
   </g>
   <g id="line2d_23">
    <path d="M 489.6 139.788 
L 489.6 144 
" clip-path="url(#p532287d616)" style="fill: none; stroke: #142233; stroke-width: 1.296; stroke-linecap: round"/>
   </g>
   <g id="line2d_24">
    <path d="M 485.856 144 
L 493.344 144 
" clip-path="url(#p532287d616)" style="fill: none; stroke: #142233; stroke-width: 1.296; stroke-linecap: round"/>
   </g>
   <g id="line2d_25">
    <path d="M 354.96 92.16 
L 343.44 132.48 
" clip-path="url(#p532287d616)" style="fill: none; stroke-dasharray: 3.7296,1.6128; stroke-dashoffset: 0; stroke: #008b9a; stroke-width: 1.008"/>
   </g>
   <g id="line2d_26">
    <path d="M 486.72 92.16 
L 475.2 132.48 
" clip-path="url(#p532287d616)" style="fill: none; stroke-dasharray: 3.7296,1.6128; stroke-dashoffset: 0; stroke: #008b9a; stroke-width: 1.008"/>
   </g>
   <g id="text_1">
    <!-- 위치만 이동 -->
    <g style="fill: #008b9a" transform="translate(85.927837 28.060931) scale(0.2232 -0.2232)">
     <defs>
      <path id="Pretendard-SemiBold-2104" d="M 2031 4844 
C 1181 4850 563 4363 563 3656 
C 563 2963 1181 2469 2031 2475 
C 2888 2469 3513 2963 3513 3656 
C 3513 4363 2888 4850 2031 4844 
z
M 2031 4281 
C 2513 4288 2850 4044 2850 3656 
C 2850 3275 2513 3044 2031 3044 
C 1569 3044 1231 3275 1238 3656 
C 1231 4044 1569 4288 2031 4281 
z
M 4913 5088 
L 4225 5088 
L 4225 -550 
L 4913 -550 
L 4913 5088 
z
M 194 2088 
L 281 1513 
C 706 1519 1197 1522 1719 1544 
L 1719 -381 
L 2419 -381 
L 2419 1588 
C 2913 1622 3419 1681 3906 1775 
L 3856 2288 
C 2638 2106 1213 2088 194 2088 
z
" transform="scale(0.015625)"/>
      <path id="Pretendard-SemiBold-2858" d="M 4881 5094 
L 4188 5094 
L 4188 -556 
L 4881 -556 
L 4881 5094 
z
M 2356 3300 
L 2356 3594 
L 3569 3594 
L 3569 4150 
L 2350 4150 
L 2350 4975 
L 1663 4975 
L 1663 4150 
L 419 4150 
L 419 3594 
L 1663 3594 
L 1663 3300 
C 1663 2400 1144 1450 244 1050 
L 619 513 
C 1278 800 1766 1403 2019 2125 
C 2278 1444 2763 878 3413 606 
L 3794 1138 
C 2881 1519 2356 2438 2356 3300 
z
" transform="scale(0.015625)"/>
      <path id="Pretendard-SemiBold-13cc" d="M 3056 4606 
L 381 4606 
L 381 1938 
L 3056 1938 
L 3056 4606 
z
M 1063 4050 
L 2375 4050 
L 2375 2488 
L 1063 2488 
L 1063 4050 
z
M 4644 5094 
L 3950 5094 
L 3950 969 
L 4644 969 
L 4644 2856 
L 5431 2856 
L 5431 3438 
L 4644 3438 
L 4644 5094 
z
M 4869 119 
L 1719 119 
L 1719 1369 
L 1025 1369 
L 1025 -444 
L 4869 -444 
L 4869 119 
z
" transform="scale(0.015625)"/>
      <path id="Pretendard-SemiBold-2" transform="scale(0.015625)"/>
      <path id="Pretendard-SemiBold-2174" d="M 4888 5094 
L 4188 5094 
L 4188 -563 
L 4888 -563 
L 4888 5094 
z
M 1844 4681 
C 988 4681 369 3906 369 2688 
C 369 1456 988 688 1844 688 
C 2694 688 3313 1456 3319 2688 
C 3313 3906 2694 4681 1844 4681 
z
M 1844 4056 
C 2319 4056 2644 3550 2644 2688 
C 2644 1819 2319 1313 1844 1313 
C 1363 1313 1038 1819 1038 2688 
C 1038 3550 1363 4056 1844 4056 
z
" transform="scale(0.015625)"/>
      <path id="Pretendard-SemiBold-dd9" d="M 5344 2388 
L 3106 2388 
L 3106 2925 
L 4750 2925 
L 4750 3475 
L 1513 3475 
L 1513 4294 
L 4719 4294 
L 4719 4838 
L 819 4838 
L 819 2925 
L 2425 2925 
L 2425 2388 
L 188 2388 
L 188 1831 
L 5344 1831 
L 5344 2388 
z
M 2756 1506 
C 1525 1506 788 1138 788 475 
C 788 -181 1525 -556 2756 -556 
C 3975 -556 4706 -181 4713 475 
C 4706 1138 3975 1506 2756 1506 
z
M 2756 975 
C 3563 975 4013 800 4019 475 
C 4013 150 3563 -19 2756 -19 
C 1931 -19 1488 150 1494 475 
C 1488 800 1931 975 2756 975 
z
" transform="scale(0.015625)"/>
     </defs>
     <use xlink:href="#Pretendard-SemiBold-2104"/>
     <use xlink:href="#Pretendard-SemiBold-2858" transform="translate(86.421875 0)"/>
     <use xlink:href="#Pretendard-SemiBold-13cc" transform="translate(172.84375 0)"/>
     <use xlink:href="#Pretendard-SemiBold-2" transform="translate(259.265625 0)"/>
     <use xlink:href="#Pretendard-SemiBold-2174" transform="translate(283 0)"/>
     <use xlink:href="#Pretendard-SemiBold-dd9" transform="translate(369.421875 0)"/>
    </g>
   </g>
   <g id="text_2">
    <!-- 종류만 교체 -->
    <g style="fill: #008b9a" transform="translate(358.087837 28.073138) scale(0.2232 -0.2232)">
     <defs>
      <path id="Pretendard-SemiBold-2285" d="M 3100 3075 
L 2413 3075 
L 2413 2356 
L 188 2356 
L 188 1794 
L 5338 1794 
L 5338 2356 
L 3100 2356 
L 3100 3075 
z
M 2756 1431 
C 1525 1431 788 1081 788 444 
C 788 -194 1525 -550 2756 -550 
C 3981 -550 4706 -194 4713 444 
C 4706 1081 3981 1431 2756 1431 
z
M 2756 900 
C 3569 900 4013 744 4019 444 
C 4013 131 3569 -25 2756 -25 
C 1925 -25 1488 131 1494 444 
C 1488 744 1925 900 2756 900 
z
M 4875 4844 
L 656 4844 
L 656 4288 
L 2269 4288 
C 2153 3825 1475 3416 431 3313 
L 675 2769 
C 1700 2872 2450 3272 2756 3844 
C 3063 3272 3819 2872 4844 2769 
L 5094 3313 
C 4041 3416 3363 3828 3250 4288 
L 4875 4288 
L 4875 4844 
z
" transform="scale(0.015625)"/>
      <path id="Pretendard-SemiBold-1358" d="M 5344 1756 
L 181 1756 
L 181 1213 
L 1438 1213 
L 1438 -556 
L 2131 -556 
L 2131 1213 
L 3400 1213 
L 3400 -556 
L 4100 -556 
L 4100 1213 
L 5344 1213 
L 5344 1756 
z
M 4744 4906 
L 788 4906 
L 788 4338 
L 4031 4338 
L 4031 3844 
L 800 3844 
L 800 2225 
L 4869 2225 
L 4869 2788 
L 1500 2788 
L 1500 3325 
L 4744 3325 
L 4744 4906 
z
" transform="scale(0.015625)"/>
      <path id="Pretendard-SemiBold-750" d="M 4819 4575 
L 706 4575 
L 706 4019 
L 4125 4019 
L 4125 4000 
C 4125 3319 4125 2544 3931 1500 
L 4613 1431 
C 4819 2538 4819 3300 4819 4000 
L 4819 4575 
z
M 5338 744 
L 3438 744 
L 3438 2544 
L 2756 2544 
L 2756 744 
L 2038 744 
L 2038 2544 
L 1344 2544 
L 1344 744 
L 188 744 
L 188 175 
L 5338 175 
L 5338 744 
z
" transform="scale(0.015625)"/>
      <path id="Pretendard-SemiBold-26b4" d="M 1913 3369 
L 1913 3544 
L 2856 3544 
L 2856 4106 
L 1913 4106 
L 1913 4894 
L 1256 4894 
L 1256 4106 
L 294 4106 
L 294 3544 
L 1256 3544 
L 1256 3369 
C 1256 2475 900 1531 100 1069 
L 506 544 
C 1038 856 1394 1403 1594 2044 
C 1794 1450 2150 953 2675 675 
L 3063 1188 
C 2275 1613 1913 2494 1913 3369 
z
M 5050 5094 
L 4388 5094 
L 4388 -556 
L 5050 -556 
L 5050 5094 
z
M 3900 4988 
L 3244 4988 
L 3244 2925 
L 2506 2925 
L 2506 2350 
L 3244 2350 
L 3244 -281 
L 3900 -281 
L 3900 4988 
z
" transform="scale(0.015625)"/>
     </defs>
     <use xlink:href="#Pretendard-SemiBold-2285"/>
     <use xlink:href="#Pretendard-SemiBold-1358" transform="translate(86.421875 0)"/>
     <use xlink:href="#Pretendard-SemiBold-13cc" transform="translate(172.84375 0)"/>
     <use xlink:href="#Pretendard-SemiBold-2" transform="translate(259.265625 0)"/>
     <use xlink:href="#Pretendard-SemiBold-750" transform="translate(283 0)"/>
     <use xlink:href="#Pretendard-SemiBold-26b4" transform="translate(369.421875 0)"/>
    </g>
   </g>
   <g id="text_3">
    <!-- 순서만 교환 -->
    <g style="fill: #008b9a" transform="translate(630.967837 28.094063) scale(0.2232 -0.2232)">
     <defs>
      <path id="Pretendard-SemiBold-1c1c" d="M 3119 4731 
L 3119 4950 
L 2406 4950 
L 2406 4731 
C 2400 4044 1619 3369 469 3194 
L 731 2650 
C 1659 2794 2403 3247 2769 3863 
C 3125 3256 3866 2806 4794 2663 
L 5056 3213 
C 3900 3375 3119 4063 3119 4731 
z
M 5344 2288 
L 181 2288 
L 181 1725 
L 2475 1725 
L 2475 694 
L 3163 694 
L 3163 1725 
L 5344 1725 
L 5344 2288 
z
M 4775 119 
L 1500 119 
L 1500 1200 
L 806 1200 
L 806 -444 
L 4775 -444 
L 4775 119 
z
" transform="scale(0.015625)"/>
      <path id="Pretendard-SemiBold-1b1c" d="M 2275 3738 
L 2275 4638 
L 1569 4638 
L 1569 3738 
C 1563 2681 1050 1594 131 1163 
L 569 600 
C 1219 931 1678 1578 1925 2356 
C 2166 1619 2616 1019 3256 706 
L 3675 1263 
C 2775 1656 2275 2688 2275 3738 
z
M 4925 5094 
L 4238 5094 
L 4238 3269 
L 3050 3269 
L 3050 2706 
L 4238 2706 
L 4238 -563 
L 4925 -563 
L 4925 5094 
z
" transform="scale(0.015625)"/>
      <path id="Pretendard-SemiBold-3058" d="M 4663 5094 
L 3969 5094 
L 3969 681 
L 4663 681 
L 4663 2625 
L 5425 2625 
L 5425 3200 
L 4663 3200 
L 4663 5094 
z
M 4863 119 
L 1644 119 
L 1644 975 
L 950 975 
L 950 -444 
L 4863 -444 
L 4863 119 
z
M 138 1813 
L 213 1269 
C 1188 1281 2538 1294 3731 1519 
L 3675 2006 
C 3222 1938 2738 1894 2256 1869 
L 2256 2194 
C 2875 2275 3263 2581 3263 3031 
C 3263 3588 2725 3913 1900 3906 
C 1081 3913 538 3588 538 3031 
C 538 2578 934 2269 1563 2194 
L 1563 1838 
C 1050 1816 559 1813 138 1813 
z
M 3525 4600 
L 2256 4600 
L 2256 5113 
L 1563 5113 
L 1563 4600 
L 281 4600 
L 281 4094 
L 3525 4094 
L 3525 4600 
z
M 1900 3438 
C 2338 3438 2600 3294 2600 3031 
C 2600 2788 2338 2644 1900 2644 
C 1463 2644 1200 2788 1206 3031 
C 1200 3294 1463 3438 1900 3438 
z
" transform="scale(0.015625)"/>
     </defs>
     <use xlink:href="#Pretendard-SemiBold-1c1c"/>
     <use xlink:href="#Pretendard-SemiBold-1b1c" transform="translate(86.421875 0)"/>
     <use xlink:href="#Pretendard-SemiBold-13cc" transform="translate(172.84375 0)"/>
     <use xlink:href="#Pretendard-SemiBold-2" transform="translate(259.265625 0)"/>
     <use xlink:href="#Pretendard-SemiBold-750" transform="translate(283 0)"/>
     <use xlink:href="#Pretendard-SemiBold-3058" transform="translate(369.421875 0)"/>
    </g>
   </g>
   <g id="text_4">
    <!-- 같은 알람 -->
    <g style="fill: #586879" transform="translate(100.760062 166.855106) scale(0.1944 -0.1944)">
     <defs>
      <path id="Pretendard-Regular-619" d="M 4569 5050 
L 4081 5050 
L 4081 2075 
L 4569 2075 
L 4569 3344 
L 5406 3344 
L 5406 3750 
L 4569 3750 
L 4569 5050 
z
M 3075 4656 
L 481 4656 
L 481 4256 
L 2531 4256 
C 2450 3381 1659 2678 244 2369 
L 450 1969 
C 2088 2344 3069 3269 3075 4656 
z
M 4594 1825 
L 1050 1825 
L 1050 -431 
L 4725 -431 
L 4725 -50 
L 1544 -50 
L 1544 525 
L 4531 525 
L 4531 900 
L 1544 900 
L 1544 1450 
L 4594 1450 
L 4594 1825 
z
" transform="scale(0.015625)"/>
      <path id="Pretendard-Regular-2140" d="M 5288 2119 
L 225 2119 
L 225 1719 
L 5288 1719 
L 5288 2119 
z
M 4725 25 
L 1375 25 
L 1375 1231 
L 881 1231 
L 881 -388 
L 4725 -388 
L 4725 25 
z
M 2756 4850 
C 1550 4856 788 4444 788 3750 
C 788 3056 1550 2644 2756 2644 
C 3950 2644 4719 3056 4719 3750 
C 4719 4444 3950 4856 2756 4850 
z
M 2756 4456 
C 3644 4456 4219 4188 4219 3750 
C 4219 3313 3644 3044 2756 3044 
C 1863 3044 1288 3313 1294 3750 
C 1288 4188 1863 4456 2756 4456 
z
" transform="scale(0.015625)"/>
      <path id="Pretendard-Regular-2" transform="scale(0.015625)"/>
      <path id="Pretendard-Regular-1f4c" d="M 4569 5050 
L 4081 5050 
L 4081 2219 
L 4569 2219 
L 4569 3431 
L 5406 3431 
L 5406 3844 
L 4569 3844 
L 4569 5050 
z
M 4569 1956 
L 1025 1956 
L 1025 1563 
L 4081 1563 
L 4081 975 
L 1038 975 
L 1038 -431 
L 4775 -431 
L 4775 -38 
L 1519 -38 
L 1519 600 
L 4569 600 
L 4569 1956 
z
M 1775 4844 
C 944 4838 325 4338 331 3613 
C 325 2881 944 2375 1775 2375 
C 2613 2375 3219 2881 3219 3613 
C 3219 4338 2613 4838 1775 4844 
z
M 1775 4431 
C 2331 4438 2738 4094 2738 3613 
C 2738 3125 2331 2775 1775 2775 
C 1219 2775 806 3125 813 3613 
C 806 4094 1219 4438 1775 4431 
z
" transform="scale(0.015625)"/>
      <path id="Pretendard-Regular-118c" d="M 4569 5044 
L 4081 5044 
L 4081 1731 
L 4569 1731 
L 4569 3200 
L 5413 3200 
L 5413 3619 
L 4569 3619 
L 4569 5044 
z
M 4569 1456 
L 1050 1456 
L 1050 -431 
L 4569 -431 
L 4569 1456 
z
M 1531 1075 
L 4094 1075 
L 4094 -31 
L 1531 -31 
L 1531 1075 
z
M 2981 4744 
L 463 4744 
L 463 4338 
L 2500 4338 
L 2500 3606 
L 475 3606 
L 475 2025 
L 906 2025 
C 1938 2025 2681 2056 3575 2213 
L 3525 2606 
C 2659 2466 1944 2438 956 2438 
L 956 3225 
L 2981 3225 
L 2981 4744 
z
" transform="scale(0.015625)"/>
     </defs>
     <use xlink:href="#Pretendard-Regular-619"/>
     <use xlink:href="#Pretendard-Regular-2140" transform="translate(86.421875 0)"/>
     <use xlink:href="#Pretendard-Regular-2" transform="translate(172.84375 0)"/>
     <use xlink:href="#Pretendard-Regular-1f4c" transform="translate(197.9375 0)"/>
     <use xlink:href="#Pretendard-Regular-118c" transform="translate(284.359375 0)"/>
    </g>
   </g>
   <g id="text_5">
    <!-- 같은 좌표 -->
    <g style="fill: #586879" transform="translate(372.920062 166.7412) scale(0.1944 -0.1944)">
     <defs>
      <path id="Pretendard-Regular-228c" d="M 2175 4050 
L 2175 4119 
L 3425 4119 
L 3425 4531 
L 419 4531 
L 419 4119 
L 1681 4119 
L 1681 4050 
C 1675 3288 1088 2638 250 2375 
L 506 1988 
C 1166 2206 1688 2666 1931 3275 
C 2172 2713 2678 2288 3325 2081 
L 3556 2469 
C 2744 2719 2169 3344 2175 4050 
z
M 2175 2219 
L 1681 2219 
L 1681 1088 
C 1131 1069 606 1069 156 1069 
L 231 656 
C 1200 656 2513 656 3706 869 
L 3675 1231 
C 3197 1166 2681 1125 2175 1106 
L 2175 2219 
z
M 5425 2738 
L 4519 2738 
L 4519 5050 
L 4031 5050 
L 4031 -506 
L 4519 -506 
L 4519 2319 
L 5425 2319 
L 5425 2738 
z
" transform="scale(0.015625)"/>
      <path id="Pretendard-Regular-2e5c" d="M 5313 581 
L 3856 581 
L 3856 1906 
L 4813 1906 
L 4813 2313 
L 3944 2313 
L 3944 4125 
L 4825 4125 
L 4825 4531 
L 675 4531 
L 675 4125 
L 1556 4125 
L 1556 2313 
L 688 2313 
L 688 1906 
L 1644 1906 
L 1644 581 
L 225 581 
L 225 175 
L 5313 175 
L 5313 581 
z
M 2044 2313 
L 2044 4125 
L 3463 4125 
L 3463 2313 
L 2044 2313 
z
M 2138 581 
L 2138 1906 
L 3369 1906 
L 3369 581 
L 2138 581 
z
" transform="scale(0.015625)"/>
     </defs>
     <use xlink:href="#Pretendard-Regular-619"/>
     <use xlink:href="#Pretendard-Regular-2140" transform="translate(86.421875 0)"/>
     <use xlink:href="#Pretendard-Regular-2" transform="translate(172.84375 0)"/>
     <use xlink:href="#Pretendard-Regular-228c" transform="translate(197.9375 0)"/>
     <use xlink:href="#Pretendard-Regular-2e5c" transform="translate(284.359375 0)"/>
    </g>
   </g>
   <g id="text_6">
    <!-- A -->
    <g style="fill: #1f5fae" transform="translate(627.579787 83.912344) scale(0.1944 -0.1944)">
     <defs>
      <path id="Pretendard-SemiBold-3" d="M 994 0 
L 1369 1119 
L 3075 1119 
L 3450 0 
L 4319 0 
L 2719 4525 
L 1719 4525 
L 125 0 
L 994 0 
z
M 1588 1775 
L 2200 3600 
L 2238 3600 
L 2856 1775 
L 1588 1775 
z
" transform="scale(0.015625)"/>
     </defs>
     <use xlink:href="#Pretendard-SemiBold-3"/>
    </g>
   </g>
   <g id="text_7">
    <!-- B -->
    <g style="fill: #008b9a" transform="translate(725.387287 83.912344) scale(0.1944 -0.1944)">
     <defs>
      <path id="Pretendard-SemiBold-23" d="M 419 0 
L 2250 0 
C 3288 0 3794 525 3794 1231 
C 3794 1919 3306 2319 2825 2344 
L 2825 2388 
C 3269 2494 3619 2800 3619 3350 
C 3619 4025 3131 4525 2150 4525 
L 419 4525 
L 419 0 
z
M 2125 681 
L 1231 681 
L 1231 2013 
L 2144 2013 
C 2650 2013 2969 1700 2969 1294 
C 2969 938 2719 681 2125 681 
z
M 2050 2600 
L 1231 2600 
L 1231 3850 
L 2069 3850 
C 2556 3850 2806 3600 2806 3250 
C 2806 2850 2481 2600 2050 2600 
z
" transform="scale(0.015625)"/>
     </defs>
     <use xlink:href="#Pretendard-SemiBold-23"/>
    </g>
   </g>
   <g id="text_8">
    <!-- B -->
    <g style="fill: #008b9a" transform="translate(628.187287 134.312344) scale(0.1944 -0.1944)">
     <use xlink:href="#Pretendard-SemiBold-23"/>
    </g>
   </g>
   <g id="text_9">
    <!-- A -->
    <g style="fill: #1f5fae" transform="translate(724.779787 134.312344) scale(0.1944 -0.1944)">
     <use xlink:href="#Pretendard-SemiBold-3"/>
    </g>
   </g>
   <g id="text_10">
    <!-- 같은 두 사건 -->
    <g style="fill: #586879" transform="translate(634.960744 166.7412) scale(0.1944 -0.1944)">
     <defs>
      <path id="Pretendard-Regular-e50" d="M 4656 2969 
L 1425 2969 
L 1425 4313 
L 4581 4313 
L 4581 4719 
L 925 4719 
L 925 2575 
L 4656 2575 
L 4656 2969 
z
M 5306 1838 
L 219 1838 
L 219 1438 
L 2506 1438 
L 2506 -488 
L 2988 -488 
L 2988 1438 
L 5306 1438 
L 5306 1838 
z
" transform="scale(0.015625)"/>
      <path id="Pretendard-Regular-1aac" d="M 2088 3556 
L 2088 4569 
L 1606 4569 
L 1606 3556 
C 1600 2544 956 1475 144 1075 
L 456 681 
C 1081 1016 1606 1716 1856 2538 
C 2100 1766 2613 1109 3225 788 
L 3525 1181 
C 2738 1569 2088 2575 2088 3556 
z
M 4525 5050 
L 4038 5050 
L 4038 -506 
L 4525 -506 
L 4525 2369 
L 5456 2369 
L 5456 2794 
L 4525 2794 
L 4525 5050 
z
" transform="scale(0.015625)"/>
      <path id="Pretendard-Regular-674" d="M 4831 5044 
L 4338 5044 
L 4338 3331 
L 3106 3331 
L 3106 2919 
L 4338 2919 
L 4338 938 
L 4831 938 
L 4831 5044 
z
M 3131 4619 
L 594 4619 
L 594 4206 
L 2594 4206 
C 2484 3200 1594 2403 313 1981 
L 525 1588 
C 2106 2106 3125 3194 3131 4619 
z
M 4975 25 
L 1794 25 
L 1794 1356 
L 1294 1356 
L 1294 -388 
L 4975 -388 
L 4975 25 
z
" transform="scale(0.015625)"/>
     </defs>
     <use xlink:href="#Pretendard-Regular-619"/>
     <use xlink:href="#Pretendard-Regular-2140" transform="translate(86.421875 0)"/>
     <use xlink:href="#Pretendard-Regular-2" transform="translate(172.84375 0)"/>
     <use xlink:href="#Pretendard-Regular-e50" transform="translate(197.9375 0)"/>
     <use xlink:href="#Pretendard-Regular-2" transform="translate(284.359375 0)"/>
     <use xlink:href="#Pretendard-Regular-1aac" transform="translate(309.453125 0)"/>
     <use xlink:href="#Pretendard-Regular-674" transform="translate(395.875 0)"/>
    </g>
   </g>
   <g id="text_11">
    <!-- H -->
    <g style="fill: #1f5fae" transform="translate(78.096769 198.392344) scale(0.1944 -0.1944)">
     <defs>
      <path id="Pretendard-Regular-6e" d="M 500 0 
L 1063 0 
L 1063 2019 
L 3456 2019 
L 3456 0 
L 4025 0 
L 4025 4525 
L 3456 4525 
L 3456 2513 
L 1063 2513 
L 1063 4525 
L 500 4525 
L 500 0 
z
" transform="scale(0.015625)"/>
     </defs>
     <use xlink:href="#Pretendard-Regular-6e"/>
    </g>
   </g>
   <g id="text_12">
    <!-- 판독 -->
    <g style="fill: #008b9a" transform="translate(155.999587 227.894119) scale(0.1944 -0.1944)">
     <defs>
      <path id="Pretendard-SemiBold-2d10" d="M 3369 4600 
L 325 4600 
L 325 4044 
L 825 4044 
L 825 2288 
L 175 2281 
L 250 1719 
C 1206 1719 2506 1744 3644 1931 
L 3594 2444 
C 3363 2416 3122 2391 2875 2375 
L 2875 4044 
L 3369 4044 
L 3369 4600 
z
M 4644 5088 
L 3950 5088 
L 3950 931 
L 4644 931 
L 4644 2875 
L 5431 2875 
L 5431 3456 
L 4644 3456 
L 4644 5088 
z
M 4869 119 
L 1719 119 
L 1719 1325 
L 1025 1325 
L 1025 -444 
L 4869 -444 
L 4869 119 
z
M 1494 2306 
L 1494 4044 
L 2200 4044 
L 2200 2331 
C 1963 2319 1725 2309 1494 2306 
z
" transform="scale(0.015625)"/>
      <path id="Pretendard-SemiBold-dc5" d="M 5338 2331 
L 3106 2331 
L 3106 2894 
L 4769 2894 
L 4769 3456 
L 1513 3456 
L 1513 4313 
L 4719 4313 
L 4719 4863 
L 819 4863 
L 819 2894 
L 2413 2894 
L 2413 2331 
L 188 2331 
L 188 1775 
L 5338 1775 
L 5338 2331 
z
M 4719 1331 
L 756 1331 
L 756 775 
L 4031 775 
L 4031 -575 
L 4719 -575 
L 4719 1331 
z
" transform="scale(0.015625)"/>
     </defs>
     <use xlink:href="#Pretendard-SemiBold-2d10"/>
     <use xlink:href="#Pretendard-SemiBold-dc5" transform="translate(86.421875 0)"/>
    </g>
   </g>
   <g id="text_13">
    <!-- H -->
    <g style="fill: #1f5fae" transform="translate(350.256769 198.392344) scale(0.1944 -0.1944)">
     <use xlink:href="#Pretendard-Regular-6e"/>
    </g>
   </g>
   <g id="text_14">
    <!-- 판독 -->
    <g style="fill: #008b9a" transform="translate(428.159587 227.894119) scale(0.1944 -0.1944)">
     <use xlink:href="#Pretendard-SemiBold-2d10"/>
     <use xlink:href="#Pretendard-SemiBold-dc5" transform="translate(86.421875 0)"/>
    </g>
   </g>
   <g id="text_15">
    <!-- H -->
    <g style="fill: #1f5fae" transform="translate(623.136769 198.392344) scale(0.1944 -0.1944)">
     <use xlink:href="#Pretendard-Regular-6e"/>
    </g>
   </g>
   <g id="text_16">
    <!-- 판독 -->
    <g style="fill: #008b9a" transform="translate(701.039587 227.894119) scale(0.1944 -0.1944)">
     <use xlink:href="#Pretendard-SemiBold-2d10"/>
     <use xlink:href="#Pretendard-SemiBold-dc5" transform="translate(86.421875 0)"/>
    </g>
   </g>
   <g id="text_17">
    <!-- 종류 =  ·  위치 ↔ -->
    <g style="fill: #142233" transform="translate(67.866975 271.852087) scale(0.1944 -0.1944)">
     <defs>
      <path id="Pretendard-SemiBold-362f" d="M 594 2631 
L 3531 2631 
L 3531 3313 
L 594 3313 
L 594 2631 
z
M 594 1219 
L 3531 1219 
L 3531 1900 
L 594 1900 
L 594 1219 
z
" transform="scale(0.015625)"/>
      <path id="Pretendard-SemiBold-3362" d="M 875 1494 
C 1131 1494 1356 1713 1356 1981 
C 1356 2244 1131 2463 875 2463 
C 606 2463 388 2244 388 1981 
C 388 1713 606 1494 875 1494 
z
" transform="scale(0.015625)"/>
      <path id="Pretendard-SemiBold-3688" d="M 2619 225 
L 3069 681 
L 1813 1931 
L 6469 1931 
L 5213 681 
L 5663 225 
L 7700 2263 
L 5663 4300 
L 5213 3850 
L 6469 2588 
L 1813 2588 
L 3069 3850 
L 2619 4300 
L 581 2263 
L 2619 225 
z
" transform="scale(0.015625)"/>
     </defs>
     <use xlink:href="#Pretendard-SemiBold-2285"/>
     <use xlink:href="#Pretendard-SemiBold-1358" transform="translate(86.421875 0)"/>
     <use xlink:href="#Pretendard-SemiBold-2" transform="translate(172.84375 0)"/>
     <use xlink:href="#Pretendard-SemiBold-362f" transform="translate(196.578125 0)"/>
     <use xlink:href="#Pretendard-SemiBold-2" transform="translate(261.03125 0)"/>
     <use xlink:href="#Pretendard-SemiBold-2" transform="translate(284.765625 0)"/>
     <use xlink:href="#Pretendard-SemiBold-3362" transform="translate(308.5 0)"/>
     <use xlink:href="#Pretendard-SemiBold-2" transform="translate(335.75 0)"/>
     <use xlink:href="#Pretendard-SemiBold-2" transform="translate(359.484375 0)"/>
     <use xlink:href="#Pretendard-SemiBold-2104" transform="translate(383.21875 0)"/>
     <use xlink:href="#Pretendard-SemiBold-2858" transform="translate(469.640625 0)"/>
     <use xlink:href="#Pretendard-SemiBold-2" transform="translate(556.0625 0)"/>
     <use xlink:href="#Pretendard-SemiBold-3688" transform="translate(579.796875 0)"/>
    </g>
   </g>
   <g id="text_18">
    <!-- 종류 ↔  ·  위치 = -->
    <g style="fill: #142233" transform="translate(340.026975 271.852087) scale(0.1944 -0.1944)">
     <use xlink:href="#Pretendard-SemiBold-2285"/>
     <use xlink:href="#Pretendard-SemiBold-1358" transform="translate(86.421875 0)"/>
     <use xlink:href="#Pretendard-SemiBold-2" transform="translate(172.84375 0)"/>
     <use xlink:href="#Pretendard-SemiBold-3688" transform="translate(196.578125 0)"/>
     <use xlink:href="#Pretendard-SemiBold-2" transform="translate(325.96875 0)"/>
     <use xlink:href="#Pretendard-SemiBold-2" transform="translate(349.703125 0)"/>
     <use xlink:href="#Pretendard-SemiBold-3362" transform="translate(373.4375 0)"/>
     <use xlink:href="#Pretendard-SemiBold-2" transform="translate(400.6875 0)"/>
     <use xlink:href="#Pretendard-SemiBold-2" transform="translate(424.421875 0)"/>
     <use xlink:href="#Pretendard-SemiBold-2104" transform="translate(448.15625 0)"/>
     <use xlink:href="#Pretendard-SemiBold-2858" transform="translate(534.578125 0)"/>
     <use xlink:href="#Pretendard-SemiBold-2" transform="translate(621 0)"/>
     <use xlink:href="#Pretendard-SemiBold-362f" transform="translate(644.734375 0)"/>
    </g>
   </g>
   <g id="text_19">
    <!-- 순서 AB ↔ BA -->
    <g style="fill: #142233" transform="translate(619.796025 271.841456) scale(0.1944 -0.1944)">
     <use xlink:href="#Pretendard-SemiBold-1c1c"/>
     <use xlink:href="#Pretendard-SemiBold-1b1c" transform="translate(86.421875 0)"/>
     <use xlink:href="#Pretendard-SemiBold-2" transform="translate(172.84375 0)"/>
     <use xlink:href="#Pretendard-SemiBold-3" transform="translate(196.578125 0)"/>
     <use xlink:href="#Pretendard-SemiBold-23" transform="translate(265.921875 0)"/>
     <use xlink:href="#Pretendard-SemiBold-2" transform="translate(329.015625 0)"/>
     <use xlink:href="#Pretendard-SemiBold-3688" transform="translate(352.75 0)"/>
     <use xlink:href="#Pretendard-SemiBold-2" transform="translate(482.140625 0)"/>
     <use xlink:href="#Pretendard-SemiBold-23" transform="translate(505.875 0)"/>
     <use xlink:href="#Pretendard-SemiBold-3" transform="translate(568.96875 0)"/>
    </g>
   </g>
  </g>
 </g>
 <defs>
  <clipPath id="p532287d616">
   <rect x="0" y="0" width="817.92" height="290.88"/>
  </clipPath>
 </defs>
</svg>
