<svg xmlns="http://www.w3.org/2000/svg" width="1136" height="400" viewBox="0 0 1136 400"><rect width="1136" height="400" fill="#f6f8fa"/><defs><marker id="b" markerWidth="8" markerHeight="8" refX="7" refY="3.5" orient="auto"><path d="M0 0 L7 3.5 L0 7 Z" fill="#1f5fae"/></marker><marker id="t" markerWidth="8" markerHeight="8" refX="7" refY="3.5" orient="auto"><path d="M0 0 L7 3.5 L0 7 Z" fill="#007b80"/></marker><marker id="i" markerWidth="8" markerHeight="8" refX="7" refY="3.5" orient="auto"><path d="M0 0 L7 3.5 L0 7 Z" fill="#586879"/></marker><marker id="o" markerWidth="8" markerHeight="8" refX="7" refY="3.5" orient="auto"><path d="M0 0 L7 3.5 L0 7 Z" fill="#a95018"/></marker></defs><g font-family="Pretendard, Arial, sans-serif" fill="#142233" stroke-linecap="round" stroke-linejoin="round"><text x="15" y="31" font-size="24" fill="#008b9a" font-weight="600" text-anchor="start">공간 분기</text><text x="403" y="31" font-size="24" fill="#008b9a" font-weight="600" text-anchor="start">스펙트럼 분기</text><text x="15" y="73" font-size="22" fill="#586879" font-weight="400" text-anchor="start">같은 프레임을 함께 가림</text><text x="403" y="73" font-size="22" fill="#586879" font-weight="400" text-anchor="start">상보적으로 가림</text><rect x="45.0" y="111" width="19.5" height="57" rx="0" fill="#e7eff9" stroke="#d4dde7" stroke-width="1"/><rect x="48.0" y="118" width="15.5" height="6" rx="0" fill="#1f5fae" stroke="none" stroke-width="0"/><rect x="48.0" y="133" width="15.5" height="7" rx="0" fill="#1f5fae" stroke="none" stroke-width="0"/><rect x="48.0" y="148" width="15.5" height="8" rx="0" fill="#1f5fae" stroke="none" stroke-width="0"/><rect x="67.5" y="111" width="19.5" height="57" rx="0" fill="#e7eff9" stroke="#d4dde7" stroke-width="1"/><rect x="70.5" y="118" width="15.5" height="7" rx="0" fill="#1f5fae" stroke="none" stroke-width="0"/><rect x="70.5" y="133" width="15.5" height="8" rx="0" fill="#1f5fae" stroke="none" stroke-width="0"/><rect x="70.5" y="148" width="15.5" height="9" rx="0" fill="#1f5fae" stroke="none" stroke-width="0"/><rect x="90.0" y="111" width="19.5" height="57" rx="0" fill="#e7eff9" stroke="#d4dde7" stroke-width="1"/><rect x="93.0" y="118" width="15.5" height="8" rx="0" fill="#1f5fae" stroke="none" stroke-width="0"/><rect x="93.0" y="133" width="15.5" height="9" rx="0" fill="#1f5fae" stroke="none" stroke-width="0"/><rect x="93.0" y="148" width="15.5" height="6" rx="0" fill="#1f5fae" stroke="none" stroke-width="0"/><rect x="112.5" y="111" width="19.5" height="57" rx="0" fill="#f6f8fa" stroke="#d4dde7" stroke-width="1"/><path d="M116.5 163 L128.0 116" fill="none" stroke="#d4dde7" stroke-width="2"/><rect x="135.0" y="111" width="19.5" height="57" rx="0" fill="#f6f8fa" stroke="#d4dde7" stroke-width="1"/><path d="M139.0 163 L150.5 116" fill="none" stroke="#d4dde7" stroke-width="2"/><rect x="157.5" y="111" width="19.5" height="57" rx="0" fill="#e7eff9" stroke="#d4dde7" stroke-width="1"/><rect x="160.5" y="118" width="15.5" height="7" rx="0" fill="#1f5fae" stroke="none" stroke-width="0"/><rect x="160.5" y="133" width="15.5" height="8" rx="0" fill="#1f5fae" stroke="none" stroke-width="0"/><rect x="160.5" y="148" width="15.5" height="9" rx="0" fill="#1f5fae" stroke="none" stroke-width="0"/><rect x="180.0" y="111" width="19.5" height="57" rx="0" fill="#e7eff9" stroke="#d4dde7" stroke-width="1"/><rect x="183.0" y="118" width="15.5" height="8" rx="0" fill="#1f5fae" stroke="none" stroke-width="0"/><rect x="183.0" y="133" width="15.5" height="9" rx="0" fill="#1f5fae" stroke="none" stroke-width="0"/><rect x="183.0" y="148" width="15.5" height="6" rx="0" fill="#1f5fae" stroke="none" stroke-width="0"/><rect x="202.5" y="111" width="19.5" height="57" rx="0" fill="#e7eff9" stroke="#d4dde7" stroke-width="1"/><rect x="205.5" y="118" width="15.5" height="9" rx="0" fill="#1f5fae" stroke="none" stroke-width="0"/><rect x="205.5" y="133" width="15.5" height="6" rx="0" fill="#1f5fae" stroke="none" stroke-width="0"/><rect x="205.5" y="148" width="15.5" height="7" rx="0" fill="#1f5fae" stroke="none" stroke-width="0"/><rect x="225.0" y="111" width="19.5" height="57" rx="0" fill="#f6f8fa" stroke="#d4dde7" stroke-width="1"/><path d="M229.0 163 L240.5 116" fill="none" stroke="#d4dde7" stroke-width="2"/><rect x="247.5" y="111" width="19.5" height="57" rx="0" fill="#f6f8fa" stroke="#d4dde7" stroke-width="1"/><path d="M251.5 163 L263.0 116" fill="none" stroke="#d4dde7" stroke-width="2"/><rect x="270.0" y="111" width="19.5" height="57" rx="0" fill="#e7eff9" stroke="#d4dde7" stroke-width="1"/><rect x="273.0" y="118" width="15.5" height="8" rx="0" fill="#1f5fae" stroke="none" stroke-width="0"/><rect x="273.0" y="133" width="15.5" height="9" rx="0" fill="#1f5fae" stroke="none" stroke-width="0"/><rect x="273.0" y="148" width="15.5" height="6" rx="0" fill="#1f5fae" stroke="none" stroke-width="0"/><rect x="292.5" y="111" width="19.5" height="57" rx="0" fill="#e7eff9" stroke="#d4dde7" stroke-width="1"/><rect x="295.5" y="118" width="15.5" height="9" rx="0" fill="#1f5fae" stroke="none" stroke-width="0"/><rect x="295.5" y="133" width="15.5" height="6" rx="0" fill="#1f5fae" stroke="none" stroke-width="0"/><rect x="295.5" y="148" width="15.5" height="7" rx="0" fill="#1f5fae" stroke="none" stroke-width="0"/><text x="15" y="150" font-size="21" fill="#1f5fae" font-weight="600" text-anchor="start">1</text><rect x="45.0" y="199" width="19.5" height="57" rx="0" fill="#e4f1f1" stroke="#d4dde7" stroke-width="1"/><rect x="48.0" y="206" width="15.5" height="6" rx="0" fill="#007b80" stroke="none" stroke-width="0"/><rect x="48.0" y="221" width="15.5" height="7" rx="0" fill="#007b80" stroke="none" stroke-width="0"/><rect x="48.0" y="236" width="15.5" height="8" rx="0" fill="#007b80" stroke="none" stroke-width="0"/><rect x="67.5" y="199" width="19.5" height="57" rx="0" fill="#e4f1f1" stroke="#d4dde7" stroke-width="1"/><rect x="70.5" y="206" width="15.5" height="7" rx="0" fill="#007b80" stroke="none" stroke-width="0"/><rect x="70.5" y="221" width="15.5" height="8" rx="0" fill="#007b80" stroke="none" stroke-width="0"/><rect x="70.5" y="236" width="15.5" height="9" rx="0" fill="#007b80" stroke="none" stroke-width="0"/><rect x="90.0" y="199" width="19.5" height="57" rx="0" fill="#e4f1f1" stroke="#d4dde7" stroke-width="1"/><rect x="93.0" y="206" width="15.5" height="8" rx="0" fill="#007b80" stroke="none" stroke-width="0"/><rect x="93.0" y="221" width="15.5" height="9" rx="0" fill="#007b80" stroke="none" stroke-width="0"/><rect x="93.0" y="236" width="15.5" height="6" rx="0" fill="#007b80" stroke="none" stroke-width="0"/><rect x="112.5" y="199" width="19.5" height="57" rx="0" fill="#f6f8fa" stroke="#d4dde7" stroke-width="1"/><path d="M116.5 251 L128.0 204" fill="none" stroke="#d4dde7" stroke-width="2"/><rect x="135.0" y="199" width="19.5" height="57" rx="0" fill="#f6f8fa" stroke="#d4dde7" stroke-width="1"/><path d="M139.0 251 L150.5 204" fill="none" stroke="#d4dde7" stroke-width="2"/><rect x="157.5" y="199" width="19.5" height="57" rx="0" fill="#e4f1f1" stroke="#d4dde7" stroke-width="1"/><rect x="160.5" y="206" width="15.5" height="7" rx="0" fill="#007b80" stroke="none" stroke-width="0"/><rect x="160.5" y="221" width="15.5" height="8" rx="0" fill="#007b80" stroke="none" stroke-width="0"/><rect x="160.5" y="236" width="15.5" height="9" rx="0" fill="#007b80" stroke="none" stroke-width="0"/><rect x="180.0" y="199" width="19.5" height="57" rx="0" fill="#e4f1f1" stroke="#d4dde7" stroke-width="1"/><rect x="183.0" y="206" width="15.5" height="8" rx="0" fill="#007b80" stroke="none" stroke-width="0"/><rect x="183.0" y="221" width="15.5" height="9" rx="0" fill="#007b80" stroke="none" stroke-width="0"/><rect x="183.0" y="236" width="15.5" height="6" rx="0" fill="#007b80" stroke="none" stroke-width="0"/><rect x="202.5" y="199" width="19.5" height="57" rx="0" fill="#e4f1f1" stroke="#d4dde7" stroke-width="1"/><rect x="205.5" y="206" width="15.5" height="9" rx="0" fill="#007b80" stroke="none" stroke-width="0"/><rect x="205.5" y="221" width="15.5" height="6" rx="0" fill="#007b80" stroke="none" stroke-width="0"/><rect x="205.5" y="236" width="15.5" height="7" rx="0" fill="#007b80" stroke="none" stroke-width="0"/><rect x="225.0" y="199" width="19.5" height="57" rx="0" fill="#f6f8fa" stroke="#d4dde7" stroke-width="1"/><path d="M229.0 251 L240.5 204" fill="none" stroke="#d4dde7" stroke-width="2"/><rect x="247.5" y="199" width="19.5" height="57" rx="0" fill="#f6f8fa" stroke="#d4dde7" stroke-width="1"/><path d="M251.5 251 L263.0 204" fill="none" stroke="#d4dde7" stroke-width="2"/><rect x="270.0" y="199" width="19.5" height="57" rx="0" fill="#e4f1f1" stroke="#d4dde7" stroke-width="1"/><rect x="273.0" y="206" width="15.5" height="8" rx="0" fill="#007b80" stroke="none" stroke-width="0"/><rect x="273.0" y="221" width="15.5" height="9" rx="0" fill="#007b80" stroke="none" stroke-width="0"/><rect x="273.0" y="236" width="15.5" height="6" rx="0" fill="#007b80" stroke="none" stroke-width="0"/><rect x="292.5" y="199" width="19.5" height="57" rx="0" fill="#e4f1f1" stroke="#d4dde7" stroke-width="1"/><rect x="295.5" y="206" width="15.5" height="9" rx="0" fill="#007b80" stroke="none" stroke-width="0"/><rect x="295.5" y="221" width="15.5" height="6" rx="0" fill="#007b80" stroke="none" stroke-width="0"/><rect x="295.5" y="236" width="15.5" height="7" rx="0" fill="#007b80" stroke="none" stroke-width="0"/><text x="15" y="238" font-size="21" fill="#007b80" font-weight="600" text-anchor="start">2</text><text x="175" y="307" font-size="23" fill="#586879" font-weight="400" text-anchor="middle">시간 프레임 →</text><rect x="430.0" y="111" width="19.5" height="57" rx="0" fill="#e7eff9" stroke="#d4dde7" stroke-width="1"/><rect x="433.0" y="118" width="15.5" height="6" rx="0" fill="#1f5fae" stroke="none" stroke-width="0"/><rect x="433.0" y="133" width="15.5" height="7" rx="0" fill="#1f5fae" stroke="none" stroke-width="0"/><rect x="433.0" y="148" width="15.5" height="8" rx="0" fill="#1f5fae" stroke="none" stroke-width="0"/><rect x="452.5" y="111" width="19.5" height="57" rx="0" fill="#f6f8fa" stroke="#d4dde7" stroke-width="1"/><path d="M456.5 163 L468.0 116" fill="none" stroke="#d4dde7" stroke-width="2"/><rect x="475.0" y="111" width="19.5" height="57" rx="0" fill="#e7eff9" stroke="#d4dde7" stroke-width="1"/><rect x="478.0" y="118" width="15.5" height="8" rx="0" fill="#1f5fae" stroke="none" stroke-width="0"/><rect x="478.0" y="133" width="15.5" height="9" rx="0" fill="#1f5fae" stroke="none" stroke-width="0"/><rect x="478.0" y="148" width="15.5" height="6" rx="0" fill="#1f5fae" stroke="none" stroke-width="0"/><rect x="497.5" y="111" width="19.5" height="57" rx="0" fill="#f6f8fa" stroke="#d4dde7" stroke-width="1"/><path d="M501.5 163 L513.0 116" fill="none" stroke="#d4dde7" stroke-width="2"/><rect x="520.0" y="111" width="19.5" height="57" rx="0" fill="#e7eff9" stroke="#d4dde7" stroke-width="1"/><rect x="523.0" y="118" width="15.5" height="6" rx="0" fill="#1f5fae" stroke="none" stroke-width="0"/><rect x="523.0" y="133" width="15.5" height="7" rx="0" fill="#1f5fae" stroke="none" stroke-width="0"/><rect x="523.0" y="148" width="15.5" height="8" rx="0" fill="#1f5fae" stroke="none" stroke-width="0"/><rect x="542.5" y="111" width="19.5" height="57" rx="0" fill="#f6f8fa" stroke="#d4dde7" stroke-width="1"/><path d="M546.5 163 L558.0 116" fill="none" stroke="#d4dde7" stroke-width="2"/><rect x="565.0" y="111" width="19.5" height="57" rx="0" fill="#e7eff9" stroke="#d4dde7" stroke-width="1"/><rect x="568.0" y="118" width="15.5" height="8" rx="0" fill="#1f5fae" stroke="none" stroke-width="0"/><rect x="568.0" y="133" width="15.5" height="9" rx="0" fill="#1f5fae" stroke="none" stroke-width="0"/><rect x="568.0" y="148" width="15.5" height="6" rx="0" fill="#1f5fae" stroke="none" stroke-width="0"/><rect x="587.5" y="111" width="19.5" height="57" rx="0" fill="#f6f8fa" stroke="#d4dde7" stroke-width="1"/><path d="M591.5 163 L603.0 116" fill="none" stroke="#d4dde7" stroke-width="2"/><rect x="610.0" y="111" width="19.5" height="57" rx="0" fill="#e7eff9" stroke="#d4dde7" stroke-width="1"/><rect x="613.0" y="118" width="15.5" height="6" rx="0" fill="#1f5fae" stroke="none" stroke-width="0"/><rect x="613.0" y="133" width="15.5" height="7" rx="0" fill="#1f5fae" stroke="none" stroke-width="0"/><rect x="613.0" y="148" width="15.5" height="8" rx="0" fill="#1f5fae" stroke="none" stroke-width="0"/><rect x="632.5" y="111" width="19.5" height="57" rx="0" fill="#f6f8fa" stroke="#d4dde7" stroke-width="1"/><path d="M636.5 163 L648.0 116" fill="none" stroke="#d4dde7" stroke-width="2"/><rect x="655.0" y="111" width="19.5" height="57" rx="0" fill="#e7eff9" stroke="#d4dde7" stroke-width="1"/><rect x="658.0" y="118" width="15.5" height="8" rx="0" fill="#1f5fae" stroke="none" stroke-width="0"/><rect x="658.0" y="133" width="15.5" height="9" rx="0" fill="#1f5fae" stroke="none" stroke-width="0"/><rect x="658.0" y="148" width="15.5" height="6" rx="0" fill="#1f5fae" stroke="none" stroke-width="0"/><rect x="677.5" y="111" width="19.5" height="57" rx="0" fill="#f6f8fa" stroke="#d4dde7" stroke-width="1"/><path d="M681.5 163 L693.0 116" fill="none" stroke="#d4dde7" stroke-width="2"/><text x="400" y="150" font-size="21" fill="#1f5fae" font-weight="600" text-anchor="start">1</text><rect x="430.0" y="199" width="19.5" height="57" rx="0" fill="#f6f8fa" stroke="#d4dde7" stroke-width="1"/><path d="M434.0 251 L445.5 204" fill="none" stroke="#d4dde7" stroke-width="2"/><rect x="452.5" y="199" width="19.5" height="57" rx="0" fill="#e4f1f1" stroke="#d4dde7" stroke-width="1"/><rect x="455.5" y="206" width="15.5" height="7" rx="0" fill="#007b80" stroke="none" stroke-width="0"/><rect x="455.5" y="221" width="15.5" height="8" rx="0" fill="#007b80" stroke="none" stroke-width="0"/><rect x="455.5" y="236" width="15.5" height="9" rx="0" fill="#007b80" stroke="none" stroke-width="0"/><rect x="475.0" y="199" width="19.5" height="57" rx="0" fill="#f6f8fa" stroke="#d4dde7" stroke-width="1"/><path d="M479.0 251 L490.5 204" fill="none" stroke="#d4dde7" stroke-width="2"/><rect x="497.5" y="199" width="19.5" height="57" rx="0" fill="#e4f1f1" stroke="#d4dde7" stroke-width="1"/><rect x="500.5" y="206" width="15.5" height="9" rx="0" fill="#007b80" stroke="none" stroke-width="0"/><rect x="500.5" y="221" width="15.5" height="6" rx="0" fill="#007b80" stroke="none" stroke-width="0"/><rect x="500.5" y="236" width="15.5" height="7" rx="0" fill="#007b80" stroke="none" stroke-width="0"/><rect x="520.0" y="199" width="19.5" height="57" rx="0" fill="#f6f8fa" stroke="#d4dde7" stroke-width="1"/><path d="M524.0 251 L535.5 204" fill="none" stroke="#d4dde7" stroke-width="2"/><rect x="542.5" y="199" width="19.5" height="57" rx="0" fill="#e4f1f1" stroke="#d4dde7" stroke-width="1"/><rect x="545.5" y="206" width="15.5" height="7" rx="0" fill="#007b80" stroke="none" stroke-width="0"/><rect x="545.5" y="221" width="15.5" height="8" rx="0" fill="#007b80" stroke="none" stroke-width="0"/><rect x="545.5" y="236" width="15.5" height="9" rx="0" fill="#007b80" stroke="none" stroke-width="0"/><rect x="565.0" y="199" width="19.5" height="57" rx="0" fill="#f6f8fa" stroke="#d4dde7" stroke-width="1"/><path d="M569.0 251 L580.5 204" fill="none" stroke="#d4dde7" stroke-width="2"/><rect x="587.5" y="199" width="19.5" height="57" rx="0" fill="#e4f1f1" stroke="#d4dde7" stroke-width="1"/><rect x="590.5" y="206" width="15.5" height="9" rx="0" fill="#007b80" stroke="none" stroke-width="0"/><rect x="590.5" y="221" width="15.5" height="6" rx="0" fill="#007b80" stroke="none" stroke-width="0"/><rect x="590.5" y="236" width="15.5" height="7" rx="0" fill="#007b80" stroke="none" stroke-width="0"/><rect x="610.0" y="199" width="19.5" height="57" rx="0" fill="#f6f8fa" stroke="#d4dde7" stroke-width="1"/><path d="M614.0 251 L625.5 204" fill="none" stroke="#d4dde7" stroke-width="2"/><rect x="632.5" y="199" width="19.5" height="57" rx="0" fill="#e4f1f1" stroke="#d4dde7" stroke-width="1"/><rect x="635.5" y="206" width="15.5" height="7" rx="0" fill="#007b80" stroke="none" stroke-width="0"/><rect x="635.5" y="221" width="15.5" height="8" rx="0" fill="#007b80" stroke="none" stroke-width="0"/><rect x="635.5" y="236" width="15.5" height="9" rx="0" fill="#007b80" stroke="none" stroke-width="0"/><rect x="655.0" y="199" width="19.5" height="57" rx="0" fill="#f6f8fa" stroke="#d4dde7" stroke-width="1"/><path d="M659.0 251 L670.5 204" fill="none" stroke="#d4dde7" stroke-width="2"/><rect x="677.5" y="199" width="19.5" height="57" rx="0" fill="#e4f1f1" stroke="#d4dde7" stroke-width="1"/><rect x="680.5" y="206" width="15.5" height="9" rx="0" fill="#007b80" stroke="none" stroke-width="0"/><rect x="680.5" y="221" width="15.5" height="6" rx="0" fill="#007b80" stroke="none" stroke-width="0"/><rect x="680.5" y="236" width="15.5" height="7" rx="0" fill="#007b80" stroke="none" stroke-width="0"/><text x="400" y="238" font-size="21" fill="#007b80" font-weight="600" text-anchor="start">2</text><text x="560" y="307" font-size="23" fill="#586879" font-weight="400" text-anchor="middle">시간 프레임 →</text><path d="M332 150 H370 V346 H753 V228" stroke="#1f5fae" stroke-width="2" fill="none" marker-end="url(#b)"/><path d="M718 223 L796 223" fill="none" stroke="#007b80" stroke-width="3" marker-end="url(#t)"/><rect x="834" y="160" width="122" height="83" rx="2" fill="#f6f8fa" stroke="#1f5fae" stroke-width="2"/><rect x="827" y="167" width="122" height="83" rx="2" fill="#f6f8fa" stroke="#1f5fae" stroke-width="2"/><rect x="820" y="174" width="122" height="83" rx="2" fill="#f6f8fa" stroke="#1f5fae" stroke-width="2"/><text x="881.0" y="223.5" font-size="24" fill="#1f5fae" font-weight="600" text-anchor="middle">복원기</text><path d="M962 214 L1005 214" fill="none" stroke="#586879" stroke-width="3" marker-end="url(#i)"/><text x="833" y="31" font-size="24" fill="#008b9a" font-weight="600" text-anchor="start">복원 목표</text><rect x="1025.0" y="160" width="5.666666666666666" height="103" rx="0" fill="#f6f8fa" stroke="#d4dde7" stroke-width="1"/><path d="M1029.0 258 L1026.6666666666667 165" fill="none" stroke="#d4dde7" stroke-width="2"/><rect x="1033.6666666666667" y="160" width="5.666666666666666" height="103" rx="0" fill="#f6f8fa" stroke="#d4dde7" stroke-width="1"/><path d="M1037.6666666666667 258 L1035.3333333333333 165" fill="none" stroke="#d4dde7" stroke-width="2"/><rect x="1042.3333333333333" y="160" width="5.666666666666666" height="103" rx="0" fill="#e7eff9" stroke="#d4dde7" stroke-width="1"/><rect x="1045.3333333333333" y="167" width="2" height="8" rx="0" fill="#1f5fae" stroke="none" stroke-width="0"/><rect x="1045.3333333333333" y="182" width="2" height="9" rx="0" fill="#1f5fae" stroke="none" stroke-width="0"/><rect x="1045.3333333333333" y="197" width="2" height="6" rx="0" fill="#1f5fae" stroke="none" stroke-width="0"/><rect x="1051.0" y="160" width="5.666666666666666" height="103" rx="0" fill="#e7eff9" stroke="#d4dde7" stroke-width="1"/><rect x="1054.0" y="167" width="2" height="9" rx="0" fill="#1f5fae" stroke="none" stroke-width="0"/><rect x="1054.0" y="182" width="2" height="6" rx="0" fill="#1f5fae" stroke="none" stroke-width="0"/><rect x="1054.0" y="197" width="2" height="7" rx="0" fill="#1f5fae" stroke="none" stroke-width="0"/><rect x="1059.6666666666667" y="160" width="5.666666666666666" height="103" rx="0" fill="#f6f8fa" stroke="#d4dde7" stroke-width="1"/><path d="M1063.6666666666667 258 L1061.3333333333333 165" fill="none" stroke="#d4dde7" stroke-width="2"/><rect x="1068.3333333333333" y="160" width="5.666666666666666" height="103" rx="0" fill="#f6f8fa" stroke="#d4dde7" stroke-width="1"/><path d="M1072.3333333333333 258 L1070.0 165" fill="none" stroke="#d4dde7" stroke-width="2"/><rect x="1077.0" y="160" width="5.666666666666666" height="103" rx="0" fill="#f6f8fa" stroke="#d4dde7" stroke-width="1"/><path d="M1081.0 258 L1078.6666666666667 165" fill="none" stroke="#d4dde7" stroke-width="2"/><rect x="1085.6666666666667" y="160" width="5.666666666666666" height="103" rx="0" fill="#f6f8fa" stroke="#d4dde7" stroke-width="1"/><path d="M1089.6666666666667 258 L1087.3333333333333 165" fill="none" stroke="#d4dde7" stroke-width="2"/><rect x="1094.3333333333333" y="160" width="5.666666666666666" height="103" rx="0" fill="#e7eff9" stroke="#d4dde7" stroke-width="1"/><rect x="1097.3333333333333" y="167" width="2" height="6" rx="0" fill="#1f5fae" stroke="none" stroke-width="0"/><rect x="1097.3333333333333" y="182" width="2" height="7" rx="0" fill="#1f5fae" stroke="none" stroke-width="0"/><rect x="1097.3333333333333" y="197" width="2" height="8" rx="0" fill="#1f5fae" stroke="none" stroke-width="0"/><rect x="1103.0" y="160" width="5.666666666666666" height="103" rx="0" fill="#e7eff9" stroke="#d4dde7" stroke-width="1"/><rect x="1106.0" y="167" width="2" height="7" rx="0" fill="#1f5fae" stroke="none" stroke-width="0"/><rect x="1106.0" y="182" width="2" height="8" rx="0" fill="#1f5fae" stroke="none" stroke-width="0"/><rect x="1106.0" y="197" width="2" height="9" rx="0" fill="#1f5fae" stroke="none" stroke-width="0"/><rect x="1111.6666666666667" y="160" width="5.666666666666666" height="103" rx="0" fill="#f6f8fa" stroke="#d4dde7" stroke-width="1"/><path d="M1115.6666666666667 258 L1113.3333333333333 165" fill="none" stroke="#d4dde7" stroke-width="2"/><rect x="1120.3333333333333" y="160" width="5.666666666666666" height="103" rx="0" fill="#f6f8fa" stroke="#d4dde7" stroke-width="1"/><path d="M1124.3333333333333 258 L1122.0 165" fill="none" stroke="#d4dde7" stroke-width="2"/><text x="979" y="327" font-size="24" fill="#1f5fae" font-weight="600" text-anchor="middle">가린 STFT</text><text x="979" y="363" font-size="22" fill="#586879" font-weight="400" text-anchor="middle">한 채널의 관측</text></g></svg>