<svg xmlns="http://www.w3.org/2000/svg" width="1136" height="400" viewBox="0 0 1136 400"><rect width="1136" height="400" fill="#f6f8fa"/><defs><marker id="b" markerWidth="8" markerHeight="8" refX="7" refY="3.5" orient="auto"><path d="M0 0 L7 3.5 L0 7 Z" fill="#1f5fae"/></marker><marker id="t" markerWidth="8" markerHeight="8" refX="7" refY="3.5" orient="auto"><path d="M0 0 L7 3.5 L0 7 Z" fill="#007b80"/></marker><marker id="i" markerWidth="8" markerHeight="8" refX="7" refY="3.5" orient="auto"><path d="M0 0 L7 3.5 L0 7 Z" fill="#586879"/></marker><marker id="o" markerWidth="8" markerHeight="8" refX="7" refY="3.5" orient="auto"><path d="M0 0 L7 3.5 L0 7 Z" fill="#a95018"/></marker></defs><g font-family="Pretendard, Arial, sans-serif" fill="#142233" stroke-linecap="round" stroke-linejoin="round"><text x="12" y="29" font-size="24" fill="#008b9a" font-weight="600" text-anchor="start">결합 위치만 비교</text><text x="15" y="130" font-size="27" fill="#1f5fae" font-weight="600" text-anchor="start">early</text><text x="180" y="77" font-size="24" fill="#007b80" font-weight="600" text-anchor="middle">FOA</text><rect x="125.0" y="100" width="5.75" height="44" rx="0" fill="#e4f1f1" stroke="#d4dde7" stroke-width="1"/><rect x="128.0" y="107" width="2" height="6" rx="0" fill="#007b80" stroke="none" stroke-width="0"/><rect x="128.0" y="122" width="2" height="7" rx="0" fill="#007b80" stroke="none" stroke-width="0"/><rect x="128.0" y="137" width="2" height="8" rx="0" fill="#007b80" stroke="none" stroke-width="0"/><rect x="133.75" y="100" width="5.75" height="44" rx="0" fill="#e4f1f1" stroke="#d4dde7" stroke-width="1"/><rect x="136.75" y="107" width="2" height="7" rx="0" fill="#007b80" stroke="none" stroke-width="0"/><rect x="136.75" y="122" width="2" height="8" rx="0" fill="#007b80" stroke="none" stroke-width="0"/><rect x="136.75" y="137" width="2" height="9" rx="0" fill="#007b80" stroke="none" stroke-width="0"/><rect x="142.5" y="100" width="5.75" height="44" rx="0" fill="#e4f1f1" stroke="#d4dde7" stroke-width="1"/><rect x="145.5" y="107" width="2" height="8" rx="0" fill="#007b80" stroke="none" stroke-width="0"/><rect x="145.5" y="122" width="2" height="9" rx="0" fill="#007b80" stroke="none" stroke-width="0"/><rect x="145.5" y="137" width="2" height="6" rx="0" fill="#007b80" stroke="none" stroke-width="0"/><rect x="151.25" y="100" width="5.75" height="44" rx="0" fill="#e4f1f1" stroke="#d4dde7" stroke-width="1"/><rect x="154.25" y="107" width="2" height="9" rx="0" fill="#007b80" stroke="none" stroke-width="0"/><rect x="154.25" y="122" width="2" height="6" rx="0" fill="#007b80" stroke="none" stroke-width="0"/><rect x="154.25" y="137" width="2" height="7" rx="0" fill="#007b80" stroke="none" stroke-width="0"/><rect x="160.0" y="100" width="5.75" height="44" rx="0" fill="#e4f1f1" stroke="#d4dde7" stroke-width="1"/><rect x="163.0" y="107" width="2" height="6" rx="0" fill="#007b80" stroke="none" stroke-width="0"/><rect x="163.0" y="122" width="2" height="7" rx="0" fill="#007b80" stroke="none" stroke-width="0"/><rect x="163.0" y="137" width="2" height="8" rx="0" fill="#007b80" stroke="none" stroke-width="0"/><rect x="168.75" y="100" width="5.75" height="44" rx="0" fill="#e4f1f1" stroke="#d4dde7" stroke-width="1"/><rect x="171.75" y="107" width="2" height="7" rx="0" fill="#007b80" stroke="none" stroke-width="0"/><rect x="171.75" y="122" width="2" height="8" rx="0" fill="#007b80" stroke="none" stroke-width="0"/><rect x="171.75" y="137" width="2" height="9" rx="0" fill="#007b80" stroke="none" stroke-width="0"/><rect x="177.5" y="100" width="5.75" height="44" rx="0" fill="#e4f1f1" stroke="#d4dde7" stroke-width="1"/><rect x="180.5" y="107" width="2" height="8" rx="0" fill="#007b80" stroke="none" stroke-width="0"/><rect x="180.5" y="122" width="2" height="9" rx="0" fill="#007b80" stroke="none" stroke-width="0"/><rect x="180.5" y="137" width="2" height="6" rx="0" fill="#007b80" stroke="none" stroke-width="0"/><rect x="186.25" y="100" width="5.75" height="44" rx="0" fill="#e4f1f1" stroke="#d4dde7" stroke-width="1"/><rect x="189.25" y="107" width="2" height="9" rx="0" fill="#007b80" stroke="none" stroke-width="0"/><rect x="189.25" y="122" width="2" height="6" rx="0" fill="#007b80" stroke="none" stroke-width="0"/><rect x="189.25" y="137" width="2" height="7" rx="0" fill="#007b80" stroke="none" stroke-width="0"/><rect x="195.0" y="100" width="5.75" height="44" rx="0" fill="#e4f1f1" stroke="#d4dde7" stroke-width="1"/><rect x="198.0" y="107" width="2" height="6" rx="0" fill="#007b80" stroke="none" stroke-width="0"/><rect x="198.0" y="122" width="2" height="7" rx="0" fill="#007b80" stroke="none" stroke-width="0"/><rect x="198.0" y="137" width="2" height="8" rx="0" fill="#007b80" stroke="none" stroke-width="0"/><rect x="203.75" y="100" width="5.75" height="44" rx="0" fill="#e4f1f1" stroke="#d4dde7" stroke-width="1"/><rect x="206.75" y="107" width="2" height="7" rx="0" fill="#007b80" stroke="none" stroke-width="0"/><rect x="206.75" y="122" width="2" height="8" rx="0" fill="#007b80" stroke="none" stroke-width="0"/><rect x="206.75" y="137" width="2" height="9" rx="0" fill="#007b80" stroke="none" stroke-width="0"/><rect x="212.5" y="100" width="5.75" height="44" rx="0" fill="#e4f1f1" stroke="#d4dde7" stroke-width="1"/><rect x="215.5" y="107" width="2" height="8" rx="0" fill="#007b80" stroke="none" stroke-width="0"/><rect x="215.5" y="122" width="2" height="9" rx="0" fill="#007b80" stroke="none" stroke-width="0"/><rect x="215.5" y="137" width="2" height="6" rx="0" fill="#007b80" stroke="none" stroke-width="0"/><rect x="221.25" y="100" width="5.75" height="44" rx="0" fill="#e4f1f1" stroke="#d4dde7" stroke-width="1"/><rect x="224.25" y="107" width="2" height="9" rx="0" fill="#007b80" stroke="none" stroke-width="0"/><rect x="224.25" y="122" width="2" height="6" rx="0" fill="#007b80" stroke="none" stroke-width="0"/><rect x="224.25" y="137" width="2" height="7" rx="0" fill="#007b80" stroke="none" stroke-width="0"/><path d="M250 124 L298 124" fill="none" stroke="#586879" stroke-width="3" marker-end="url(#i)"/><rect x="337" y="71" width="187" height="80" rx="2" fill="#f6f8fa" stroke="#1f5fae" stroke-width="2"/><rect x="330" y="78" width="187" height="80" rx="2" fill="#f6f8fa" stroke="#1f5fae" stroke-width="2"/><rect x="323" y="85" width="187" height="80" rx="2" fill="#f6f8fa" stroke="#1f5fae" stroke-width="2"/><text x="416.5" y="133.0" font-size="24" fill="#1f5fae" font-weight="600" text-anchor="middle">낮은 특징</text><rect x="638" y="71" width="187" height="80" rx="2" fill="#f6f8fa" stroke="#1f5fae" stroke-width="2"/><rect x="631" y="78" width="187" height="80" rx="2" fill="#f6f8fa" stroke="#1f5fae" stroke-width="2"/><rect x="624" y="85" width="187" height="80" rx="2" fill="#f6f8fa" stroke="#1f5fae" stroke-width="2"/><text x="717.5" y="133.0" font-size="24" fill="#1f5fae" font-weight="600" text-anchor="middle">높은 특징</text><path d="M535 124 L593 124" fill="none" stroke="#586879" stroke-width="3" marker-end="url(#i)"/><path d="M839 124 L900 124" fill="none" stroke="#586879" stroke-width="3" marker-end="url(#i)"/><text x="958" y="132" font-size="28" fill="#142233" font-weight="600" text-anchor="middle">SELD</text><text x="376" y="216" font-size="24" fill="#007b80" font-weight="600" text-anchor="start">태깅 의미 특징</text><path d="M543 209 H514 V176" stroke="#007b80" stroke-width="3" fill="none" marker-end="url(#t)"/><text x="15" y="291" font-size="27" fill="#1f5fae" font-weight="600" text-anchor="start">late</text><text x="180" y="238" font-size="24" fill="#007b80" font-weight="600" text-anchor="middle">FOA</text><rect x="125.0" y="261" width="5.75" height="44" rx="0" fill="#e4f1f1" stroke="#d4dde7" stroke-width="1"/><rect x="128.0" y="268" width="2" height="6" rx="0" fill="#007b80" stroke="none" stroke-width="0"/><rect x="128.0" y="283" width="2" height="7" rx="0" fill="#007b80" stroke="none" stroke-width="0"/><rect x="128.0" y="298" width="2" height="8" rx="0" fill="#007b80" stroke="none" stroke-width="0"/><rect x="133.75" y="261" width="5.75" height="44" rx="0" fill="#e4f1f1" stroke="#d4dde7" stroke-width="1"/><rect x="136.75" y="268" width="2" height="7" rx="0" fill="#007b80" stroke="none" stroke-width="0"/><rect x="136.75" y="283" width="2" height="8" rx="0" fill="#007b80" stroke="none" stroke-width="0"/><rect x="136.75" y="298" width="2" height="9" rx="0" fill="#007b80" stroke="none" stroke-width="0"/><rect x="142.5" y="261" width="5.75" height="44" rx="0" fill="#e4f1f1" stroke="#d4dde7" stroke-width="1"/><rect x="145.5" y="268" width="2" height="8" rx="0" fill="#007b80" stroke="none" stroke-width="0"/><rect x="145.5" y="283" width="2" height="9" rx="0" fill="#007b80" stroke="none" stroke-width="0"/><rect x="145.5" y="298" width="2" height="6" rx="0" fill="#007b80" stroke="none" stroke-width="0"/><rect x="151.25" y="261" width="5.75" height="44" rx="0" fill="#e4f1f1" stroke="#d4dde7" stroke-width="1"/><rect x="154.25" y="268" width="2" height="9" rx="0" fill="#007b80" stroke="none" stroke-width="0"/><rect x="154.25" y="283" width="2" height="6" rx="0" fill="#007b80" stroke="none" stroke-width="0"/><rect x="154.25" y="298" width="2" height="7" rx="0" fill="#007b80" stroke="none" stroke-width="0"/><rect x="160.0" y="261" width="5.75" height="44" rx="0" fill="#e4f1f1" stroke="#d4dde7" stroke-width="1"/><rect x="163.0" y="268" width="2" height="6" rx="0" fill="#007b80" stroke="none" stroke-width="0"/><rect x="163.0" y="283" width="2" height="7" rx="0" fill="#007b80" stroke="none" stroke-width="0"/><rect x="163.0" y="298" width="2" height="8" rx="0" fill="#007b80" stroke="none" stroke-width="0"/><rect x="168.75" y="261" width="5.75" height="44" rx="0" fill="#e4f1f1" stroke="#d4dde7" stroke-width="1"/><rect x="171.75" y="268" width="2" height="7" rx="0" fill="#007b80" stroke="none" stroke-width="0"/><rect x="171.75" y="283" width="2" height="8" rx="0" fill="#007b80" stroke="none" stroke-width="0"/><rect x="171.75" y="298" width="2" height="9" rx="0" fill="#007b80" stroke="none" stroke-width="0"/><rect x="177.5" y="261" width="5.75" height="44" rx="0" fill="#e4f1f1" stroke="#d4dde7" stroke-width="1"/><rect x="180.5" y="268" width="2" height="8" rx="0" fill="#007b80" stroke="none" stroke-width="0"/><rect x="180.5" y="283" width="2" height="9" rx="0" fill="#007b80" stroke="none" stroke-width="0"/><rect x="180.5" y="298" width="2" height="6" rx="0" fill="#007b80" stroke="none" stroke-width="0"/><rect x="186.25" y="261" width="5.75" height="44" rx="0" fill="#e4f1f1" stroke="#d4dde7" stroke-width="1"/><rect x="189.25" y="268" width="2" height="9" rx="0" fill="#007b80" stroke="none" stroke-width="0"/><rect x="189.25" y="283" width="2" height="6" rx="0" fill="#007b80" stroke="none" stroke-width="0"/><rect x="189.25" y="298" width="2" height="7" rx="0" fill="#007b80" stroke="none" stroke-width="0"/><rect x="195.0" y="261" width="5.75" height="44" rx="0" fill="#e4f1f1" stroke="#d4dde7" stroke-width="1"/><rect x="198.0" y="268" width="2" height="6" rx="0" fill="#007b80" stroke="none" stroke-width="0"/><rect x="198.0" y="283" width="2" height="7" rx="0" fill="#007b80" stroke="none" stroke-width="0"/><rect x="198.0" y="298" width="2" height="8" rx="0" fill="#007b80" stroke="none" stroke-width="0"/><rect x="203.75" y="261" width="5.75" height="44" rx="0" fill="#e4f1f1" stroke="#d4dde7" stroke-width="1"/><rect x="206.75" y="268" width="2" height="7" rx="0" fill="#007b80" stroke="none" stroke-width="0"/><rect x="206.75" y="283" width="2" height="8" rx="0" fill="#007b80" stroke="none" stroke-width="0"/><rect x="206.75" y="298" width="2" height="9" rx="0" fill="#007b80" stroke="none" stroke-width="0"/><rect x="212.5" y="261" width="5.75" height="44" rx="0" fill="#e4f1f1" stroke="#d4dde7" stroke-width="1"/><rect x="215.5" y="268" width="2" height="8" rx="0" fill="#007b80" stroke="none" stroke-width="0"/><rect x="215.5" y="283" width="2" height="9" rx="0" fill="#007b80" stroke="none" stroke-width="0"/><rect x="215.5" y="298" width="2" height="6" rx="0" fill="#007b80" stroke="none" stroke-width="0"/><rect x="221.25" y="261" width="5.75" height="44" rx="0" fill="#e4f1f1" stroke="#d4dde7" stroke-width="1"/><rect x="224.25" y="268" width="2" height="9" rx="0" fill="#007b80" stroke="none" stroke-width="0"/><rect x="224.25" y="283" width="2" height="6" rx="0" fill="#007b80" stroke="none" stroke-width="0"/><rect x="224.25" y="298" width="2" height="7" rx="0" fill="#007b80" stroke="none" stroke-width="0"/><path d="M250 285 L298 285" fill="none" stroke="#586879" stroke-width="3" marker-end="url(#i)"/><rect x="337" y="232" width="187" height="80" rx="2" fill="#f6f8fa" stroke="#1f5fae" stroke-width="2"/><rect x="330" y="239" width="187" height="80" rx="2" fill="#f6f8fa" stroke="#1f5fae" stroke-width="2"/><rect x="323" y="246" width="187" height="80" rx="2" fill="#f6f8fa" stroke="#1f5fae" stroke-width="2"/><text x="416.5" y="294.0" font-size="24" fill="#1f5fae" font-weight="600" text-anchor="middle">낮은 특징</text><rect x="638" y="232" width="187" height="80" rx="2" fill="#f6f8fa" stroke="#1f5fae" stroke-width="2"/><rect x="631" y="239" width="187" height="80" rx="2" fill="#f6f8fa" stroke="#1f5fae" stroke-width="2"/><rect x="624" y="246" width="187" height="80" rx="2" fill="#f6f8fa" stroke="#1f5fae" stroke-width="2"/><text x="717.5" y="294.0" font-size="24" fill="#1f5fae" font-weight="600" text-anchor="middle">높은 특징</text><path d="M535 285 L593 285" fill="none" stroke="#586879" stroke-width="3" marker-end="url(#i)"/><path d="M839 285 L900 285" fill="none" stroke="#586879" stroke-width="3" marker-end="url(#i)"/><text x="958" y="293" font-size="28" fill="#142233" font-weight="600" text-anchor="middle">SELD</text><text x="376" y="377" font-size="24" fill="#007b80" font-weight="600" text-anchor="start">태깅 의미 특징</text><path d="M543 370 H800 V337" stroke="#007b80" stroke-width="3" fill="none" marker-end="url(#t)"/></g></svg>