<svg xmlns="http://www.w3.org/2000/svg" xmlns:xlink="http://www.w3.org/1999/xlink" version="1.1" width="712.2219pt" height="359.86466pt" viewBox="0 0 712.2219 359.86466">
<defs>
<clipPath id="clip_0">
<path transform="matrix(1,0,0,-1,0,359.86466)" d="M82.21562 52.856649H696.3078V352.66468H82.21562Z"/>
</clipPath>
<clipPath id="clip_1">
<path transform="matrix(1,0,0,-1,0,359.86466)" d="M82.21562 52.856649H696.3078V352.66468H82.21562Z"/>
</clipPath>
<g id="font_2_48">
<path transform="matrix(.001,0,0,.001,0,0)" d="M318 34C368 34 405 61 430 116 454 170 467 253 467 364 467 474 454 557 430 612 405 666 368 694 318 694 268 694 230 666 206 612 181 557 169 474 169 364 169 253 181 170 206 116 230 61 268 34 318 34ZM318-13C238-13 176 20 132 86 88 152 66 244 66 364 66 483 88 576 132 642 176 708 238 742 318 742 397 742 459 708 503 642 547 576 570 483 570 364 570 244 547 152 503 86 459 20 397-13 318-13Z"/>
</g>
<g id="font_2_46">
<path transform="matrix(.001,0,0,.001,0,0)" d="M94 51C94 69 100 84 112 97 124 109 140 116 159 116 177 116 192 109 205 97 217 84 224 69 224 51 224 33 217 17 205 5 192-7 177-13 159-13 140-13 124-7 112 5 100 17 94 32 94 51Z"/>
</g>
<g id="font_2_50">
<path transform="matrix(.001,0,0,.001,0,0)" d="M128 555H73V685C107 703 142 717 178 727 213 737 248 742 282 742 358 742 418 723 462 687 506 650 528 600 528 537 528 465 478 380 378 281 370 273 365 268 361 264L177 80H481V170H538V0H68V53L289 274C337 322 372 367 393 408 414 449 425 492 425 537 425 586 412 624 386 652 360 680 325 694 281 694 234 694 198 682 173 659 147 636 132 601 128 555Z"/>
</g>
<clipPath id="clip_3">
<path transform="matrix(1,0,0,-1,0,359.86466)" d="M82.21562 52.856649H696.3078V352.66468H82.21562Z"/>
</clipPath>
<g id="font_2_52">
<path transform="matrix(.001,0,0,.001,0,0)" d="M349 247V635L100 247H349ZM564 0H232V52H349V195H31V248L350 742H447V247H586V195H447V52H564V0Z"/>
</g>
<clipPath id="clip_4">
<path transform="matrix(1,0,0,-1,0,359.86466)" d="M82.21562 52.856649H696.3078V352.66468H82.21562Z"/>
</clipPath>
<g id="font_2_54">
<path transform="matrix(.001,0,0,.001,0,0)" d="M327 34C373 34 408 50 433 84 457 118 470 166 470 230 470 293 457 341 433 375 408 409 373 426 327 426 280 426 244 409 220 377 196 344 184 297 184 236 184 171 196 121 221 86 245 51 281 34 327 34ZM168 401C190 425 215 444 243 456 271 468 302 474 338 474 410 474 468 452 510 408 552 364 573 305 573 230 573 156 550 97 505 53 459 9 399-13 323-13 241-13 177 17 133 78 89 139 67 227 67 341 67 468 93 567 145 637 197 707 271 742 367 742 393 742 420 739 448 735 476 730 505 723 535 713V593H480C476 625 463 650 442 668 421 685 393 694 357 694 293 694 246 670 215 622 184 574 168 500 168 401Z"/>
</g>
<clipPath id="clip_5">
<path transform="matrix(1,0,0,-1,0,359.86466)" d="M82.21562 52.856649H696.3078V352.66468H82.21562Z"/>
</clipPath>
<g id="font_2_56">
<path transform="matrix(.001,0,0,.001,0,0)" d="M466 199C466 251 453 291 427 320 401 349 364 364 318 364 271 364 235 349 209 320 183 291 170 251 170 199 170 147 183 106 209 77 235 48 271 34 318 34 364 34 401 48 427 77 453 106 466 147 466 199ZM446 553C446 597 434 632 412 657 389 681 358 694 318 694 278 694 246 681 224 657 201 632 190 597 190 553 190 508 201 473 224 449 246 424 278 412 318 412 358 412 389 424 412 449 434 473 446 508 446 553ZM393 388C448 380 491 360 522 327 553 293 569 251 569 199 569 131 547 78 504 42 460 5 398-13 318-13 237-13 175 5 132 42 88 78 67 131 67 199 67 251 82 293 113 327 144 360 187 380 243 388 193 396 156 415 130 444 104 472 91 509 91 553 91 611 111 657 151 691 191 725 247 742 318 742 388 742 444 725 484 691 524 657 545 611 545 553 545 509 531 472 505 444 479 415 441 396 393 388Z"/>
</g>
<clipPath id="clip_6">
<path transform="matrix(1,0,0,-1,0,359.86466)" d="M82.21562 52.856649H696.3078V352.66468H82.21562Z"/>
</clipPath>
<g id="font_2_49">
<path transform="matrix(.001,0,0,.001,0,0)" d="M142 0V52H269V658L122 563V627L300 742H367V52H494V0H142Z"/>
</g>
<g id="font_2_83">
<path transform="matrix(.001,0,0,.001,0,0)" d="M93 35V201H149C150 145 166 104 197 78 227 51 274 38 336 38 394 38 438 49 468 72 498 95 514 129 514 173 514 208 504 235 486 254 468 272 429 291 370 309L274 338C204 359 154 385 126 417 98 448 84 491 84 547 84 609 106 657 150 691 194 725 255 742 335 742 369 742 406 738 446 731 486 723 529 713 575 699V544H520C514 595 497 632 468 655 439 678 395 690 337 690 285 690 246 679 219 658 192 637 179 607 179 567 179 532 189 505 209 485 229 465 272 445 338 426L428 399C494 379 541 353 569 323 597 292 612 251 612 199 612 128 589 75 544 40 498 4 431-13 342-13 302-13 261-9 219-1 177 6 135 18 93 35Z"/>
</g>
<g id="font_2_70">
<path transform="matrix(.001,0,0,.001,0,0)" d="M55 0V52H148V677H55V729H652V567H592V669H247V425H496V516H556V274H496V365H247V52H364V0H55Z"/>
</g>
<g id="font_2_68">
<path transform="matrix(.001,0,0,.001,0,0)" d="M247 52H338C432 52 505 79 556 133 606 187 632 264 632 365 632 466 606 543 556 597 505 650 432 677 338 677H247V52ZM55 0V52H148V677H55V729H345C471 729 569 697 639 633 709 569 744 479 744 365 744 250 708 160 638 96 568 32 470 0 345 0H55Z"/>
</g>
<g id="font_2_66">
<path transform="matrix(.001,0,0,.001,0,0)" d="M247 52H393C451 52 494 64 521 90 548 115 562 155 562 211 562 265 548 305 521 331 494 356 451 369 393 369H247V52ZM247 421H371C424 421 463 431 488 451 512 471 525 504 525 549 525 593 512 626 488 646 463 666 424 677 371 677H247V421ZM55 0V52H148V677H55V729H415C488 729 543 714 581 684 618 654 637 609 637 549 637 505 624 471 598 445 572 419 535 404 485 398 547 390 594 370 626 338 658 306 674 264 674 211 674 139 651 85 605 51 559 17 488 0 392 0H55Z"/>
</g>
<g id="font_2_65">
<path transform="matrix(.001,0,0,.001,0,0)" d="M200 264H468L334 611 200 264ZM-5 0V52H58L318 729H400L660 52H732V0H467V52H548L487 212H180L119 52H199V0H-5Z"/>
</g>
<g id="font_2_78">
<path transform="matrix(.001,0,0,.001,0,0)" d="M49 0V52H147V677H49V729H236L673 154V677H575V729H831V677H733V-13H674L207 600V52H305V0H49Z"/>
</g>
<g id="font_2_67">
<path transform="matrix(.001,0,0,.001,0,0)" d="M705 193C683 125 647 73 597 39 546 4 482-13 405-13 357-13 312-5 272 11 231 27 195 50 164 82 127 118 100 160 82 206 64 252 56 305 56 364 56 477 88 568 154 638 219 707 305 742 413 742 453 742 495 736 540 726 584 716 633 700 685 679V511H630C618 572 593 617 557 646 521 675 470 690 405 690 327 690 268 662 228 607 188 551 168 470 168 364 168 257 188 176 228 121 268 65 327 38 405 38 459 38 503 51 539 77 574 103 599 141 615 193H705Z"/>
</g>
<g id="font_2_69">
<path transform="matrix(.001,0,0,.001,0,0)" d="M55 0V52H148V677H55V729H642V567H582V669H247V425H486V516H546V274H486V365H247V60H590V162H650V0H55Z"/>
</g>
<g id="font_2_110">
<path transform="matrix(.001,0,0,.001,0,0)" d="M41 0V52H122V467H36V519H212V427C228 461 250 488 276 506 302 524 333 533 369 533 426 533 468 516 495 484 522 451 536 400 536 330V52H616V0H368V52H446V302C446 365 438 408 422 432 406 456 379 468 340 468 298 468 266 452 244 422 222 391 212 347 212 289V52H290V0H41Z"/>
</g>
<g id="font_2_111">
<path transform="matrix(.001,0,0,.001,0,0)" d="M301 34C349 34 385 53 410 91 434 129 447 185 447 259 447 333 434 390 410 428 385 466 349 485 301 485 253 485 216 466 192 428 167 390 155 333 155 259 155 185 167 129 192 91 216 53 253 34 301 34ZM301-13C225-13 165 11 119 61 73 111 50 177 50 260 50 342 72 408 118 458 164 508 225 533 301 533 377 533 437 508 483 458 529 408 552 342 552 260 552 177 529 111 483 61 437 11 377-13 301-13Z"/>
</g>
<g id="font_2_100">
<path transform="matrix(.001,0,0,.001,0,0)" d="M525 52H611V0H435V81C417 48 395 24 368 9 340-5 307-13 267-13 203-13 150 12 110 62 70 112 50 178 50 260 50 341 70 407 110 457 150 507 203 533 267 533 307 533 340 525 368 510 395 494 417 470 435 438V708H350V760H525V52ZM435 234V285C435 347 423 394 399 427 375 460 340 477 295 477 249 477 214 458 190 422 166 386 155 332 155 260 155 188 166 133 190 97 214 60 249 42 295 42 340 42 375 58 399 91 423 123 435 171 435 234Z"/>
</g>
<g id="font_2_101">
<path transform="matrix(.001,0,0,.001,0,0)" d="M542 250H155V246C155 176 168 123 194 87 220 51 259 34 311 34 350 34 382 44 408 65 433 85 451 116 461 157H533C519 100 492 57 454 29 415 1 364-13 302-13 226-13 165 11 119 61 73 111 50 177 50 260 50 342 72 408 118 458 163 508 222 533 296 533 374 533 435 508 477 460 519 412 540 342 542 250ZM436 302C434 362 421 408 397 439 373 469 340 485 296 485 254 485 222 469 198 438 174 407 160 362 155 302H436Z"/>
</g>
<g id="font_2_99">
<path transform="matrix(.001,0,0,.001,0,0)" d="M514 156C501 100 477 58 441 30 405 1 358-13 301-13 225-13 165 11 119 61 73 111 50 177 50 260 50 342 73 408 119 458 165 508 225 533 301 533 333 533 366 529 399 521 431 513 464 502 497 487V354H445C438 399 423 432 400 453 377 474 344 485 302 485 253 485 216 466 192 428 167 390 155 334 155 259 155 184 167 128 192 90 216 52 253 34 302 34 340 34 371 44 394 64 417 84 433 115 442 156H514Z"/>
</g>
<g id="font_2_76">
<path transform="matrix(.001,0,0,.001,0,0)" d="M55 0V52H148V677H55V729H340V677H247V60H580V182H640V0H55Z"/>
</g>
<g id="font_2_45">
<path transform="matrix(.001,0,0,.001,0,0)" d="M44 306H294V230H44V306Z"/>
</g>
<g id="font_2_82">
<path transform="matrix(.001,0,0,.001,0,0)" d="M479 362C501 356 521 345 538 330 554 315 569 294 582 268L688 52H777V0H605L491 232C469 276 449 305 431 319 413 332 388 339 356 339H247V52H350V0H55V52H148V677H55V729H425C495 729 550 712 589 678 627 644 647 596 647 534 647 484 633 444 605 416 577 387 535 369 479 362ZM247 391H391C440 391 476 402 500 426 523 449 535 485 535 534 535 582 523 618 500 642 476 665 440 677 391 677H247V391Z"/>
</g>
<g id="font_2_86">
<path transform="matrix(.001,0,0,.001,0,0)" d="M175 677 390 117 605 677H523V729H737V677H666L406 0H322L63 677H-9V729H256V677H175Z"/>
</g>
<g id="font_2_77">
<path transform="matrix(.001,0,0,.001,0,0)" d="M55 0V52H148V677H50V729H262L518 210 774 729H973V677H876V52H969V0H684V52H777V615L527 107H458L208 615V52H301V0H55Z"/>
</g>
<g id="font_2_87">
<path transform="matrix(.001,0,0,.001,0,0)" d="M762 0H682L515 593 348 0H268L77 677H5V729H271V677H180L332 138 498 729H577L746 132 899 677H815V729H1025V677H953L762 0Z"/>
</g>
<g id="font_2_74">
<path transform="matrix(.001,0,0,.001,0,0)" d="M-83-174V-59H-27C-26-91-19-115-5-131 9-147 30-155 59-155 97-155 124-142 140-118 155-94 163-46 163 24V677H50V729H355V677H262V20C262-60 246-117 214-153 182-189 130-207 58-207 34-207 11-204-12-198-35-192-59-184-83-174Z"/>
</g>
<g id="font_2_80">
<path transform="matrix(.001,0,0,.001,0,0)" d="M247 371H376C424 371 461 384 487 410 512 436 525 474 525 524 525 574 512 612 487 638 461 664 424 677 376 677H247V371ZM55 0V52H148V677H55V729H400C472 729 530 710 573 673 615 636 637 586 637 524 637 461 615 411 573 374 530 337 472 319 400 319H247V52H360V0H55Z"/>
</g>
<g id="font_2_71">
<path transform="matrix(.001,0,0,.001,0,0)" d="M640 511C628 572 605 617 569 646 533 675 482 690 418 690 334 690 271 663 230 609 188 555 168 473 168 364 168 256 189 175 232 120 274 65 337 38 420 38 456 38 491 42 525 51 559 60 591 74 621 93V281H484V333H720V61C676 35 630 17 580 5 530-7 476-13 420-13 310-13 221 21 155 89 89 157 56 249 56 364 56 479 89 571 155 639 221 707 311 742 424 742 465 742 508 737 553 727 597 717 645 703 695 684V511H640Z"/>
</g>
<g id="font_2_84">
<path transform="matrix(.001,0,0,.001,0,0)" d="M191 0V52H284V671H70V557H10V729H657V557H597V671H383V52H476V0H191Z"/>
</g>
<g id="font_2_73">
<path transform="matrix(.001,0,0,.001,0,0)" d="M247 52H340V0H55V52H148V677H55V729H340V677H247V52Z"/>
</g>
<g id="font_2_118">
<path transform="matrix(.001,0,0,.001,0,0)" d="M247 0 56 467H-2V519H236V467H153L299 110 445 467H367V519H562V467H504L313 0H247Z"/>
</g>
<clipPath id="clip_7">
<path transform="matrix(1,0,0,-1,0,359.86466)" d="M82.21562 52.856649H696.3078V352.66468H82.21562Z"/>
</clipPath>
<clipPath id="clip_8">
<path transform="matrix(1,0,0,-1,0,359.86466)" d="M82.21562 52.856649H696.3078V352.66468H82.21562Z"/>
</clipPath>
<clipPath id="clip_9">
<path transform="matrix(1,0,0,-1,0,359.86466)" d="M82.21562 52.856649H696.3078V352.66468H82.21562Z"/>
</clipPath>
<clipPath id="clip_10">
<path transform="matrix(1,0,0,-1,0,359.86466)" d="M82.21562 52.856649H696.3078V352.66468H82.21562Z"/>
</clipPath>
<clipPath id="clip_11">
<path transform="matrix(1,0,0,-1,0,359.86466)" d="M82.21562 52.856649H696.3078V352.66468H82.21562Z"/>
</clipPath>
<clipPath id="clip_12">
<path transform="matrix(1,0,0,-1,0,359.86466)" d="M82.21562 52.856649H696.3078V352.66468H82.21562Z"/>
</clipPath>
<clipPath id="clip_13">
<path transform="matrix(1,0,0,-1,0,359.86466)" d="M82.21562 52.856649H696.3078V352.66468H82.21562Z"/>
</clipPath>
<clipPath id="clip_14">
<path transform="matrix(1,0,0,-1,0,359.86466)" d="M82.21562 52.856649H696.3078V352.66468H82.21562Z"/>
</clipPath>
<clipPath id="clip_15">
<path transform="matrix(1,0,0,-1,0,359.86466)" d="M82.21562 52.856649H696.3078V352.66468H82.21562Z"/>
</clipPath>
<clipPath id="clip_16">
<path transform="matrix(1,0,0,-1,0,359.86466)" d="M82.21562 52.856649H696.3078V352.66468H82.21562Z"/>
</clipPath>
<clipPath id="clip_17">
<path transform="matrix(1,0,0,-1,0,359.86466)" d="M82.21562 52.856649H696.3078V352.66468H82.21562Z"/>
</clipPath>
<clipPath id="clip_18">
<path transform="matrix(1,0,0,-1,0,359.86466)" d="M82.21562 52.856649H696.3078V352.66468H82.21562Z"/>
</clipPath>
<clipPath id="clip_19">
<path transform="matrix(1,0,0,-1,0,359.86466)" d="M82.21562 52.856649H696.3078V352.66468H82.21562Z"/>
</clipPath>
<clipPath id="clip_20">
<path transform="matrix(1,0,0,-1,0,359.86466)" d="M82.21562 52.856649H696.3078V352.66468H82.21562Z"/>
</clipPath>
<clipPath id="clip_21">
<path transform="matrix(1,0,0,-1,0,359.86466)" d="M82.21562 52.856649H696.3078V352.66468H82.21562Z"/>
</clipPath>
<clipPath id="clip_22">
<path transform="matrix(1,0,0,-1,0,359.86466)" d="M82.21562 52.856649H696.3078V352.66468H82.21562Z"/>
</clipPath>
<clipPath id="clip_23">
<path transform="matrix(1,0,0,-1,0,359.86466)" d="M82.21562 52.856649H696.3078V352.66468H82.21562Z"/>
</clipPath>
<clipPath id="clip_24">
<path transform="matrix(1,0,0,-1,0,359.86466)" d="M82.21562 52.856649H696.3078V352.66468H82.21562Z"/>
</clipPath>
<clipPath id="clip_25">
<path transform="matrix(1,0,0,-1,0,359.86466)" d="M82.21562 52.856649H696.3078V352.66468H82.21562Z"/>
</clipPath>
<clipPath id="clip_26">
<path transform="matrix(1,0,0,-1,0,359.86466)" d="M82.21562 52.856649H696.3078V352.66468H82.21562Z"/>
</clipPath>
<clipPath id="clip_27">
<path transform="matrix(1,0,0,-1,0,359.86466)" d="M82.21562 52.856649H696.3078V352.66468H82.21562Z"/>
</clipPath>
<clipPath id="clip_28">
<path transform="matrix(1,0,0,-1,0,359.86466)" d="M82.21562 52.856649H696.3078V352.66468H82.21562Z"/>
</clipPath>
<clipPath id="clip_29">
<path transform="matrix(1,0,0,-1,0,359.86466)" d="M82.21562 52.856649H696.3078V352.66468H82.21562Z"/>
</clipPath>
<clipPath id="clip_30">
<path transform="matrix(1,0,0,-1,0,359.86466)" d="M82.21562 52.856649H696.3078V352.66468H82.21562Z"/>
</clipPath>
<clipPath id="clip_31">
<path transform="matrix(1,0,0,-1,0,359.86466)" d="M82.21562 52.856649H696.3078V352.66468H82.21562Z"/>
</clipPath>
<clipPath id="clip_32">
<path transform="matrix(1,0,0,-1,0,359.86466)" d="M82.21562 52.856649H696.3078V352.66468H82.21562Z"/>
</clipPath>
<g id="font_33_108">
<path transform="matrix(.001,0,0,.001,0,0)" d="M141 52H226L216 0H42L179 708H93L103 760H279L141 52Z"/>
</g>
<g id="font_33_101">
<path transform="matrix(.001,0,0,.001,0,0)" d="M146 199C145 187 145 175 145 164 145 133 150 108 161 88 180 52 215 34 267 34 305 34 333 39 352 51 384 71 405 95 413 122H479C465 80 435 45 387 16 353-3 302-13 235-13 168-13 117 11 81 61 55 95 42 138 42 188 42 210 44 234 50 259 66 341 101 408 156 458 211 508 278 533 356 533 483 533 547 488 547 398 547 332 513 282 447 250 379 217 278 200 146 199ZM397 309C433 330 452 361 452 401 452 457 415 485 341 485 297 485 260 468 230 435 200 401 175 340 157 251 261 255 341 275 397 309Z"/>
</g>
<g id="font_33_115">
<path transform="matrix(.001,0,0,.001,0,0)" d="M35 150H86C84 140 84 131 84 123 84 63 124 34 205 34 285 34 332 63 344 123 344 129 345 137 345 147 345 157 339 169 328 181 317 193 288 207 242 223L181 245C139 259 112 276 98 294 84 312 78 332 78 354 78 362 79 371 81 381 90 428 115 465 155 492 195 519 244 533 302 533 359 533 418 519 479 491L457 378H405C406 385 407 392 407 399 407 423 398 443 382 460 366 476 339 485 301 485 224 485 180 458 170 405 168 399 168 391 168 382 168 372 173 361 184 350 194 338 220 326 262 312L329 290C375 274 406 255 424 232 436 216 442 200 442 184 442 116 414 64 360 28 317 0 263-13 197-13 131-13 69 1 11 29L35 150Z"/>
</g>
<g id="font_33_32">
</g>
<g id="font_33_110">
<path transform="matrix(.001,0,0,.001,0,0)" d="M70 0 161 467H75L85 519H261L243 427C266 461 293 488 323 506 353 524 385 533 421 533 478 533 517 516 538 484 550 464 557 437 557 404 557 382 554 358 548 330L494 52H574L564 0H394L453 302C459 335 462 363 462 386 462 406 459 421 455 433 443 456 418 468 379 468 337 468 302 452 274 422 246 391 227 347 216 289L160 0H70Z"/>
</g>
<g id="font_33_105">
<path transform="matrix(.001,0,0,.001,0,0)" d="M158 680C160 695 168 708 181 719 194 730 208 736 224 736 239 736 251 730 260 719 266 711 270 701 270 691 270 687 269 684 269 680 265 664 257 651 245 641 232 630 218 625 203 625 187 625 175 630 167 641 160 649 157 658 157 669 157 672 157 676 158 680ZM150 52H235L226 0H51L141 467H55L65 519H241L150 52Z"/>
</g>
<g id="font_33_116">
<path transform="matrix(.001,0,0,.001,0,0)" d="M134 467H55L65 519H144L175 680H266L234 519H403L393 467H224L160 137C155 111 153 91 153 76 153 66 154 58 156 53 162 40 177 34 200 34 223 34 241 41 255 55 268 69 278 91 285 122H353C341 74 321 40 294 19 266-2 229-13 183-13 131-13 96-1 79 21 68 35 63 55 63 81 63 97 65 115 70 137L134 467Z"/>
</g>
<g id="font_33_118">
<path transform="matrix(.001,0,0,.001,0,0)" d="M263 0H197L97 467H38L47 519H182L270 110C307 142 338 179 363 221 415 307 450 389 469 467H410L420 519H554C518 385 478 280 434 205 394 139 337 71 263 0Z"/>
</g>
<g id="font_33_109">
<path transform="matrix(.001,0,0,.001,0,0)" d="M547 418C571 456 599 484 630 504 660 523 694 533 730 533 784 533 822 516 842 482 854 462 860 435 860 403 860 381 857 357 852 330L798 52H879L869 0H698L760 320C765 345 768 367 768 385 768 405 765 421 759 433 747 455 724 467 688 467 648 467 614 451 587 421 560 391 541 347 530 289L474 0H384L447 323C451 347 454 368 454 386 454 406 451 422 445 434 433 456 410 467 374 467 334 467 300 451 273 421 246 391 227 347 216 289L160 0H70L161 468H75L85 519H261L243 427C266 461 292 488 322 506 351 524 382 533 415 533 455 533 486 523 509 503 532 483 545 454 547 418Z"/>
</g>
<g id="font_33_111">
<path transform="matrix(.001,0,0,.001,0,0)" d="M257 34C305 34 345 53 377 91 409 129 432 185 447 260 453 294 457 324 457 350 457 381 452 407 443 428 425 466 392 485 344 485 296 485 256 466 224 428 192 390 169 334 155 260 148 226 145 196 145 170 145 138 149 112 159 91 176 53 209 34 257 34ZM248-13C172-13 116 11 80 61 54 95 42 138 42 188 42 210 44 234 50 260 66 342 101 408 157 458 212 508 278 533 354 533 430 533 486 508 522 458 546 424 559 382 559 332 559 309 556 285 552 260 536 177 500 111 444 61 388 11 323-13 248-13Z"/>
</g>
<g id="font_33_114">
<path transform="matrix(.001,0,0,.001,0,0)" d="M527 520 502 390H450C451 396 452 402 452 408 452 425 448 438 440 448 430 460 412 467 388 467 344 467 307 451 277 421 247 390 227 346 216 289L160 0H70L161 468H75L85 519H261L243 427C267 463 295 489 326 507 357 524 393 533 433 533 447 533 462 531 478 529 493 527 509 524 527 520Z"/>
</g>
<g id="font_2_117">
<path transform="matrix(.001,0,0,.001,0,0)" d="M354 519H522V52H607V0H432V92C415 57 393 31 367 13 341-4 310-13 276-13 218-13 175 3 148 35 121 67 108 119 108 189V467H27V519H198V217C198 153 205 110 221 87 237 63 264 52 304 52 346 52 377 67 399 98 421 128 432 173 432 231V467H354V519Z"/>
</g>
<g id="font_2_114">
<path transform="matrix(.001,0,0,.001,0,0)" d="M478 520V390H426C424 416 417 435 405 448 392 460 373 467 349 467 305 467 271 451 247 421 223 390 212 346 212 289V52H316V0H41V52H122V468H36V519H212V427C229 463 251 489 279 507 307 524 341 533 381 533 395 533 411 531 427 529 443 527 460 524 478 520Z"/>
</g>
<g id="font_2_32">
</g>
<g id="font_2_115">
<path transform="matrix(.001,0,0,.001,0,0)" d="M56 29V150H108C109 111 121 82 144 63 167 43 201 34 246 34 286 34 317 41 338 57 359 72 370 94 370 123 370 145 362 164 347 178 331 192 299 207 249 223L184 245C139 259 107 277 87 299 67 320 57 347 57 381 57 428 74 465 109 492 144 519 192 533 254 533 281 533 310 529 340 522 370 515 402 505 434 491V378H382C380 411 369 437 347 456 325 475 295 485 257 485 219 485 190 478 171 465 151 451 142 431 142 405 142 383 149 365 164 352 178 339 208 326 252 312L323 290C372 274 407 255 429 232 451 209 462 180 462 144 462 94 443 56 405 28 367 0 316-13 250-13 216-13 184-9 152-3 120 3 88 14 56 29Z"/>
</g>
<g id="font_2_105">
<path transform="matrix(.001,0,0,.001,0,0)" d="M97 680C97 695 102 708 113 719 124 730 137 736 153 736 167 736 180 730 191 719 202 708 208 695 208 680 208 664 202 651 192 641 181 630 168 625 153 625 137 625 124 630 113 641 102 651 97 664 97 680ZM212 52H297V0H36V52H122V467H36V519H212V52Z"/>
</g>
<g id="font_2_116">
<path transform="matrix(.001,0,0,.001,0,0)" d="M108 467H29V519H108V680H198V519H367V467H198V137C198 93 202 64 211 52 219 40 235 34 258 34 281 34 298 41 309 55 319 69 325 91 326 122H394C391 74 378 40 355 19 332-2 297-13 250-13 198-13 161-1 140 21 118 43 108 82 108 137V467Z"/>
</g>
<g id="font_2_121">
<path transform="matrix(.001,0,0,.001,0,0)" d="M216-94 250-8 56 467H-2V519H236V467H153L299 110 445 467H367V519H562V467H504L266-116C250-156 232-184 212-199 192-213 164-221 128-221 112-221 97-219 81-217 65-214 48-210 32-206V-107H78C80-129 85-144 95-154 104-164 118-169 138-169 156-169 170-164 181-154 192-144 204-124 216-94Z"/>
</g>
<g id="font_2_109">
<path transform="matrix(.001,0,0,.001,0,0)" d="M518 418C535 456 557 484 584 504 611 523 642 533 678 533 732 533 773 516 800 482 826 448 840 398 840 330V52H921V0H672V52H750V320C750 372 742 410 726 433 710 455 685 467 649 467 609 467 578 451 557 421 536 391 526 347 526 289V52H604V0H358V52H436V323C436 375 428 412 412 434 396 456 371 467 335 467 295 467 264 451 243 421 222 391 212 347 212 289V52H290V0H41V52H122V468H36V519H212V427C228 461 249 488 275 506 301 524 330 533 363 533 403 533 436 523 463 503 490 483 508 454 518 418Z"/>
</g>
</defs>
<path transform="matrix(1,0,0,-1,0,359.86466)" d="M0 0H712.2219V359.86466H0Z" fill="#ffffff"/>
<path transform="matrix(1,0,0,-1,0,359.86466)" d="M82.21562 52.856649H696.30776V352.66465H82.21562Z" fill="#ffffff"/>
<g clip-path="url(#clip_0)">
<path transform="matrix(1,0,0,-1,0,359.86466)" stroke-width="1" stroke-linecap="butt" stroke-dasharray="3.7,1.6" stroke-linejoin="round" fill="none" stroke="#999999" stroke-opacity=".6" d="M692.66549 52.856649V352.66465"/>
</g>
<g clip-path="url(#clip_1)">
<path transform="matrix(1,0,0,-1,0,359.86466)" stroke-width=".8" stroke-linecap="butt" stroke-dasharray=".8,1.32" stroke-linejoin="round" fill="none" stroke="#aaaaaa" stroke-opacity=".4" d="M198.26413 52.856649V352.66465"/>
</g>
<path transform="matrix(1,0,0,-1,0,359.86466)" d="M198.26413 52.856649V49.356649"/>
<path transform="matrix(1,0,0,-1,0,359.86466)" stroke-width=".8" stroke-linecap="butt" stroke-linejoin="round" fill="none" stroke="#000000" d="M198.26413 52.856649V49.356649"/>
<use data-text="0" xlink:href="#font_2_48" transform="matrix(15,0,0,-15,186.33444,325.39863)"/>
<use data-text="." xlink:href="#font_2_46" transform="matrix(15,0,0,-15,195.87445,325.39863)"/>
<use data-text="2" xlink:href="#font_2_50" transform="matrix(15,0,0,-15,200.64444,325.39863)"/>
<g clip-path="url(#clip_3)">
<path transform="matrix(1,0,0,-1,0,359.86466)" stroke-width=".8" stroke-linecap="butt" stroke-dasharray=".8,1.32" stroke-linejoin="round" fill="none" stroke="#aaaaaa" stroke-opacity=".4" d="M321.86445 52.856649V352.66465"/>
</g>
<path transform="matrix(1,0,0,-1,0,359.86466)" d="M321.86445 52.856649V49.356649"/>
<path transform="matrix(1,0,0,-1,0,359.86466)" stroke-width=".8" stroke-linecap="butt" stroke-linejoin="round" fill="none" stroke="#000000" d="M321.86445 52.856649V49.356649"/>
<use data-text="0" xlink:href="#font_2_48" transform="matrix(15,0,0,-15,309.93476,325.39863)"/>
<use data-text="." xlink:href="#font_2_46" transform="matrix(15,0,0,-15,319.47477,325.39863)"/>
<use data-text="4" xlink:href="#font_2_52" transform="matrix(15,0,0,-15,324.24476,325.39863)"/>
<g clip-path="url(#clip_4)">
<path transform="matrix(1,0,0,-1,0,359.86466)" stroke-width=".8" stroke-linecap="butt" stroke-dasharray=".8,1.32" stroke-linejoin="round" fill="none" stroke="#aaaaaa" stroke-opacity=".4" d="M445.46479 52.856649V352.66465"/>
</g>
<path transform="matrix(1,0,0,-1,0,359.86466)" d="M445.46479 52.856649V49.356649"/>
<path transform="matrix(1,0,0,-1,0,359.86466)" stroke-width=".8" stroke-linecap="butt" stroke-linejoin="round" fill="none" stroke="#000000" d="M445.46479 52.856649V49.356649"/>
<use data-text="0" xlink:href="#font_2_48" transform="matrix(15,0,0,-15,433.5351,325.39863)"/>
<use data-text="." xlink:href="#font_2_46" transform="matrix(15,0,0,-15,443.0751,325.39863)"/>
<use data-text="6" xlink:href="#font_2_54" transform="matrix(15,0,0,-15,447.8451,325.39863)"/>
<g clip-path="url(#clip_5)">
<path transform="matrix(1,0,0,-1,0,359.86466)" stroke-width=".8" stroke-linecap="butt" stroke-dasharray=".8,1.32" stroke-linejoin="round" fill="none" stroke="#aaaaaa" stroke-opacity=".4" d="M569.0651 52.856649V352.66465"/>
</g>
<path transform="matrix(1,0,0,-1,0,359.86466)" d="M569.0651 52.856649V49.356649"/>
<path transform="matrix(1,0,0,-1,0,359.86466)" stroke-width=".8" stroke-linecap="butt" stroke-linejoin="round" fill="none" stroke="#000000" d="M569.0651 52.856649V49.356649"/>
<use data-text="0" xlink:href="#font_2_48" transform="matrix(15,0,0,-15,557.13546,325.39863)"/>
<use data-text="." xlink:href="#font_2_46" transform="matrix(15,0,0,-15,566.6754,325.39863)"/>
<use data-text="8" xlink:href="#font_2_56" transform="matrix(15,0,0,-15,571.44546,325.39863)"/>
<g clip-path="url(#clip_6)">
<path transform="matrix(1,0,0,-1,0,359.86466)" stroke-width=".8" stroke-linecap="butt" stroke-dasharray=".8,1.32" stroke-linejoin="round" fill="none" stroke="#aaaaaa" stroke-opacity=".4" d="M692.66549 52.856649V352.66465"/>
</g>
<path transform="matrix(1,0,0,-1,0,359.86466)" d="M692.66549 52.856649V49.356649"/>
<path transform="matrix(1,0,0,-1,0,359.86466)" stroke-width=".8" stroke-linecap="butt" stroke-linejoin="round" fill="none" stroke="#000000" d="M692.66549 52.856649V49.356649"/>
<use data-text="1" xlink:href="#font_2_49" transform="matrix(15,0,0,-15,680.7358,325.39863)"/>
<use data-text="." xlink:href="#font_2_46" transform="matrix(15,0,0,-15,690.27578,325.39863)"/>
<use data-text="0" xlink:href="#font_2_48" transform="matrix(15,0,0,-15,695.0458,325.39863)"/>
<path transform="matrix(1,0,0,-1,0,359.86466)" d="M82.21562 75.49867H78.71562"/>
<path transform="matrix(1,0,0,-1,0,359.86466)" stroke-width=".8" stroke-linecap="butt" stroke-linejoin="round" fill="none" stroke="#000000" d="M82.21562 75.49867H78.71562"/>
<use data-text="S" xlink:href="#font_2_83" transform="matrix(15,0,0,-15,42.496877,290.06129)" fill="#333333"/>
<use data-text="F" xlink:href="#font_2_70" transform="matrix(15,0,0,-15,52.771879,290.06129)" fill="#333333"/>
<use data-text="D" xlink:href="#font_2_68" transform="matrix(15,0,0,-15,63.181879,290.06129)" fill="#333333"/>
<path transform="matrix(1,0,0,-1,0,359.86466)" d="M82.21562 96.709H78.71562"/>
<path transform="matrix(1,0,0,-1,0,359.86466)" stroke-width=".8" stroke-linecap="butt" stroke-linejoin="round" fill="none" stroke="#000000" d="M82.21562 96.709H78.71562"/>
<use data-text="B" xlink:href="#font_2_66" transform="matrix(15,0,0,-15,28.746876,268.85096)" fill="#333333"/>
<use data-text="A" xlink:href="#font_2_65" transform="matrix(15,0,0,-15,39.771879,268.85096)" fill="#333333"/>
<use data-text="N" xlink:href="#font_2_78" transform="matrix(15,0,0,-15,50.601877,268.85096)" fill="#333333"/>
<use data-text="C" xlink:href="#font_2_67" transform="matrix(15,0,0,-15,63.72688,268.85096)" fill="#333333"/>
<path transform="matrix(1,0,0,-1,0,359.86466)" d="M82.21562 117.919338H78.71562"/>
<path transform="matrix(1,0,0,-1,0,359.86466)" stroke-width=".8" stroke-linecap="butt" stroke-linejoin="round" fill="none" stroke="#000000" d="M82.21562 117.919338H78.71562"/>
<use data-text="E" xlink:href="#font_2_69" transform="matrix(15,0,0,-15,7.2,247.64063)" fill="#333333"/>
<use data-text="n" xlink:href="#font_2_110" transform="matrix(15,0,0,-15,18.150002,247.64063)" fill="#333333"/>
<use data-text="C" xlink:href="#font_2_67" transform="matrix(15,0,0,-15,27.810002,247.64063)" fill="#333333"/>
<use data-text="o" xlink:href="#font_2_111" transform="matrix(15,0,0,-15,39.285,247.64063)" fill="#333333"/>
<use data-text="d" xlink:href="#font_2_100" transform="matrix(15,0,0,-15,48.315,247.64063)" fill="#333333"/>
<use data-text="e" xlink:href="#font_2_101" transform="matrix(15,0,0,-15,57.914999,247.64063)" fill="#333333"/>
<use data-text="c" xlink:href="#font_2_99" transform="matrix(15,0,0,-15,66.795,247.64063)" fill="#333333"/>
<path transform="matrix(1,0,0,-1,0,359.86466)" d="M82.21562 139.12966H78.71562"/>
<path transform="matrix(1,0,0,-1,0,359.86466)" stroke-width=".8" stroke-linecap="butt" stroke-linejoin="round" fill="none" stroke="#000000" d="M82.21562 139.12966H78.71562"/>
<use data-text="S" xlink:href="#font_2_83" transform="matrix(15,0,0,-15,16.3875,226.43032)" fill="#333333"/>
<use data-text="E" xlink:href="#font_2_69" transform="matrix(15,0,0,-15,26.662503,226.43032)" fill="#333333"/>
<use data-text="L" xlink:href="#font_2_76" transform="matrix(15,0,0,-15,37.612504,226.43032)" fill="#333333"/>
<use data-text="D" xlink:href="#font_2_68" transform="matrix(15,0,0,-15,47.572504,226.43032)" fill="#333333"/>
<use data-text="-" xlink:href="#font_2_45" transform="matrix(15,0,0,-15,59.86813,226.43032)" fill="#333333"/>
<use data-text="S" xlink:href="#font_2_83" transform="matrix(15,0,0,-15,64.938129,226.43032)" fill="#333333"/>
<path transform="matrix(1,0,0,-1,0,359.86466)" d="M82.21562 160.34H78.71562"/>
<path transform="matrix(1,0,0,-1,0,359.86466)" stroke-width=".8" stroke-linecap="butt" stroke-linejoin="round" fill="none" stroke="#000000" d="M82.21562 160.34H78.71562"/>
<use data-text="S" xlink:href="#font_2_83" transform="matrix(15,0,0,-15,18.090626,205.21997)" fill="#333333"/>
<use data-text="R" xlink:href="#font_2_82" transform="matrix(15,0,0,-15,28.365628,205.21997)" fill="#333333"/>
<use data-text="-" xlink:href="#font_2_45" transform="matrix(15,0,0,-15,39.660627,205.21997)" fill="#333333"/>
<use data-text="V" xlink:href="#font_2_86" transform="matrix(15,0,0,-15,43.6525,205.21997)" fill="#333333"/>
<use data-text="A" xlink:href="#font_2_65" transform="matrix(15,0,0,-15,53.466878,205.21997)" fill="#333333"/>
<use data-text="E" xlink:href="#font_2_69" transform="matrix(15,0,0,-15,64.296878,205.21997)" fill="#333333"/>
<path transform="matrix(1,0,0,-1,0,359.86466)" d="M82.21562 181.55033H78.71562"/>
<path transform="matrix(1,0,0,-1,0,359.86466)" stroke-width=".8" stroke-linecap="butt" stroke-linejoin="round" fill="none" stroke="#000000" d="M82.21562 181.55033H78.71562"/>
<use data-text="S" xlink:href="#font_2_83" transform="matrix(15,0,0,-15,16.2625,184.00965)" fill="#333333"/>
<use data-text="E" xlink:href="#font_2_69" transform="matrix(15,0,0,-15,26.537503,184.00965)" fill="#333333"/>
<use data-text="L" xlink:href="#font_2_76" transform="matrix(15,0,0,-15,37.487504,184.00965)" fill="#333333"/>
<use data-text="D" xlink:href="#font_2_68" transform="matrix(15,0,0,-15,47.447504,184.00965)" fill="#333333"/>
<use data-text="-" xlink:href="#font_2_45" transform="matrix(15,0,0,-15,59.74313,184.00965)" fill="#333333"/>
<use data-text="F" xlink:href="#font_2_70" transform="matrix(15,0,0,-15,64.813129,184.00965)" fill="#333333"/>
<path transform="matrix(1,0,0,-1,0,359.86466)" d="M82.21562 202.76065H78.71562"/>
<path transform="matrix(1,0,0,-1,0,359.86466)" stroke-width=".8" stroke-linecap="butt" stroke-linejoin="round" fill="none" stroke="#000000" d="M82.21562 202.76065H78.71562"/>
<use data-text="A" xlink:href="#font_2_65" transform="matrix(15,0,0,-15,22.184376,162.79932)" fill="#333333"/>
<use data-text="-" xlink:href="#font_2_45" transform="matrix(15,0,0,-15,33.014379,162.79932)" fill="#333333"/>
<use data-text="M" xlink:href="#font_2_77" transform="matrix(15,0,0,-15,38.084379,162.79932)" fill="#333333"/>
<use data-text="A" xlink:href="#font_2_65" transform="matrix(15,0,0,-15,53.444379,162.79932)" fill="#333333"/>
<use data-text="E" xlink:href="#font_2_69" transform="matrix(15,0,0,-15,64.27438,162.79932)" fill="#333333"/>
<path transform="matrix(1,0,0,-1,0,359.86466)" d="M82.21562 223.97098H78.71562"/>
<path transform="matrix(1,0,0,-1,0,359.86466)" stroke-width=".8" stroke-linecap="butt" stroke-linejoin="round" fill="none" stroke="#000000" d="M82.21562 223.97098H78.71562"/>
<use data-text="A" xlink:href="#font_2_65" transform="matrix(15,0,0,-15,33.2,141.58899)" fill="#333333"/>
<use data-text="V" xlink:href="#font_2_86" transform="matrix(15,0,0,-15,43.295629,141.58899)" fill="#333333"/>
<use data-text="S" xlink:href="#font_2_83" transform="matrix(15,0,0,-15,54.125627,141.58899)" fill="#333333"/>
<use data-text="A" xlink:href="#font_2_65" transform="matrix(15,0,0,-15,64.40063,141.58899)" fill="#333333"/>
<path transform="matrix(1,0,0,-1,0,359.86466)" d="M82.21562 245.1813H78.71562"/>
<path transform="matrix(1,0,0,-1,0,359.86466)" stroke-width=".8" stroke-linecap="butt" stroke-linejoin="round" fill="none" stroke="#000000" d="M82.21562 245.1813H78.71562"/>
<use data-text="W" xlink:href="#font_2_87" transform="matrix(15,0,0,-15,19.340626,120.37866)" fill="#333333"/>
<use data-text="-" xlink:href="#font_2_45" transform="matrix(15,0,0,-15,33.682504,120.37866)" fill="#333333"/>
<use data-text="J" xlink:href="#font_2_74" transform="matrix(15,0,0,-15,38.752504,120.37866)" fill="#333333"/>
<use data-text="E" xlink:href="#font_2_69" transform="matrix(15,0,0,-15,44.7675,120.37866)" fill="#333333"/>
<use data-text="P" xlink:href="#font_2_80" transform="matrix(15,0,0,-15,55.717504,120.37866)" fill="#333333"/>
<use data-text="A" xlink:href="#font_2_65" transform="matrix(15,0,0,-15,64.4375,120.37866)" fill="#333333"/>
<path transform="matrix(1,0,0,-1,0,359.86466)" d="M82.21562 266.39164H78.71562"/>
<path transform="matrix(1,0,0,-1,0,359.86466)" stroke-width=".8" stroke-linecap="butt" stroke-linejoin="round" fill="none" stroke="#000000" d="M82.21562 266.39164H78.71562"/>
<use data-text="G" xlink:href="#font_2_71" transform="matrix(15,0,0,-15,9.653125,99.168338)" fill="#333333"/>
<use data-text="R" xlink:href="#font_2_82" transform="matrix(15,0,0,-15,21.638127,99.168338)" fill="#333333"/>
<use data-text="A" xlink:href="#font_2_65" transform="matrix(15,0,0,-15,32.933126,99.168338)" fill="#333333"/>
<use data-text="M" xlink:href="#font_2_77" transform="matrix(15,0,0,-15,43.763128,99.168338)" fill="#333333"/>
<use data-text="-" xlink:href="#font_2_45" transform="matrix(15,0,0,-15,59.123128,99.168338)" fill="#333333"/>
<use data-text="B" xlink:href="#font_2_66" transform="matrix(15,0,0,-15,64.19312,99.168338)" fill="#333333"/>
<path transform="matrix(1,0,0,-1,0,359.86466)" d="M82.21562 287.60197H78.71562"/>
<path transform="matrix(1,0,0,-1,0,359.86466)" stroke-width=".8" stroke-linecap="butt" stroke-linejoin="round" fill="none" stroke="#000000" d="M82.21562 287.60197H78.71562"/>
<use data-text="S" xlink:href="#font_2_83" transform="matrix(15,0,0,-15,28.2625,77.95801)" fill="#333333"/>
<use data-text="-" xlink:href="#font_2_45" transform="matrix(15,0,0,-15,39.084379,77.95801)" fill="#333333"/>
<use data-text="A" xlink:href="#font_2_65" transform="matrix(15,0,0,-15,44.154378,77.95801)" fill="#333333"/>
<use data-text="S" xlink:href="#font_2_83" transform="matrix(15,0,0,-15,54.98438,77.95801)" fill="#333333"/>
<use data-text="T" xlink:href="#font_2_84" transform="matrix(15,0,0,-15,65.259387,77.95801)" fill="#333333"/>
<path transform="matrix(1,0,0,-1,0,359.86466)" d="M82.21562 308.8123H78.71562"/>
<path transform="matrix(1,0,0,-1,0,359.86466)" stroke-width=".8" stroke-linecap="butt" stroke-linejoin="round" fill="none" stroke="#000000" d="M82.21562 308.8123H78.71562"/>
<use data-text="E" xlink:href="#font_2_69" transform="matrix(15,0,0,-15,27.2,56.74768)" fill="#333333"/>
<use data-text="I" xlink:href="#font_2_73" transform="matrix(15,0,0,-15,38.15,56.74768)" fill="#333333"/>
<use data-text="N" xlink:href="#font_2_78" transform="matrix(15,0,0,-15,44.075,56.74768)" fill="#333333"/>
<use data-text="v" xlink:href="#font_2_118" transform="matrix(15,0,0,-15,57.2,56.74768)" fill="#333333"/>
<use data-text="2" xlink:href="#font_2_50" transform="matrix(15,0,0,-15,65.675,56.74768)" fill="#333333"/>
<path transform="matrix(1,0,0,-1,0,359.86466)" d="M82.21562 330.0226H78.71562"/>
<path transform="matrix(1,0,0,-1,0,359.86466)" stroke-width=".8" stroke-linecap="butt" stroke-linejoin="round" fill="none" stroke="#000000" d="M82.21562 330.0226H78.71562"/>
<use data-text="G" xlink:href="#font_2_71" transform="matrix(15,0,0,-15,10.278125,35.537355)" fill="#333333"/>
<use data-text="R" xlink:href="#font_2_82" transform="matrix(15,0,0,-15,22.263127,35.537355)" fill="#333333"/>
<use data-text="A" xlink:href="#font_2_65" transform="matrix(15,0,0,-15,33.558126,35.537355)" fill="#333333"/>
<use data-text="M" xlink:href="#font_2_77" transform="matrix(15,0,0,-15,44.388128,35.537355)" fill="#333333"/>
<use data-text="-" xlink:href="#font_2_45" transform="matrix(15,0,0,-15,59.748128,35.537355)" fill="#333333"/>
<use data-text="F" xlink:href="#font_2_70" transform="matrix(15,0,0,-15,64.81812,35.537355)" fill="#333333"/>
<g clip-path="url(#clip_7)">
<path transform="matrix(1,0,0,-1,0,359.86466)" d="M74.6638 66.48428H399.5269V75.49867H74.6638Z" fill="#1b7fcc" fill-opacity=".85"/>
</g>
<g clip-path="url(#clip_8)">
<path transform="matrix(1,0,0,-1,0,359.86466)" d="M74.6638 87.69461H665.40768V96.709H74.6638Z" fill="#1b7fcc" fill-opacity=".85"/>
</g>
<g clip-path="url(#clip_9)">
<path transform="matrix(1,0,0,-1,0,359.86466)" d="M74.6638 108.904949H232.0492V117.919338H74.6638Z" fill="#1b7fcc" fill-opacity=".85"/>
</g>
<g clip-path="url(#clip_10)">
<path transform="matrix(1,0,0,-1,0,359.86466)" d="M74.6638 130.11527H237.65842V139.12966H74.6638Z" fill="#1b7fcc" fill-opacity=".85"/>
</g>
<g clip-path="url(#clip_11)">
<path transform="matrix(1,0,0,-1,0,359.86466)" d="M74.6638 151.3256H272.21635V160.34H74.6638Z" fill="#1b7fcc" fill-opacity=".85"/>
</g>
<g clip-path="url(#clip_12)">
<path transform="matrix(1,0,0,-1,0,359.86466)" d="M74.6638 172.53594H343.1187V181.55033H74.6638Z" fill="#1b7fcc" fill-opacity=".85"/>
</g>
<g clip-path="url(#clip_13)">
<path transform="matrix(1,0,0,-1,0,359.86466)" d="M74.6638 193.74626H275.43205V202.76065H74.6638Z" fill="#1b7fcc" fill-opacity=".85"/>
</g>
<g clip-path="url(#clip_14)">
<path transform="matrix(1,0,0,-1,0,359.86466)" d="M74.6638 214.95659H375.02757V223.97098H74.6638Z" fill="#1b7fcc" fill-opacity=".85"/>
</g>
<g clip-path="url(#clip_15)">
<path transform="matrix(1,0,0,-1,0,359.86466)" d="M74.6638 236.16692H249.81511V245.1813H74.6638Z" fill="#1b7fcc" fill-opacity=".85"/>
</g>
<g clip-path="url(#clip_16)">
<path transform="matrix(1,0,0,-1,0,359.86466)" d="M74.6638 257.37727H306.27348V266.39164H74.6638Z" fill="#1b7fcc" fill-opacity=".85"/>
</g>
<g clip-path="url(#clip_17)">
<path transform="matrix(1,0,0,-1,0,359.86466)" d="M74.6638 278.5876H240.73293V287.60197H74.6638Z" fill="#1b7fcc" fill-opacity=".85"/>
</g>
<g clip-path="url(#clip_18)">
<path transform="matrix(1,0,0,-1,0,359.86466)" d="M74.6638 299.7979H198.9952V308.8123H74.6638Z" fill="#1b7fcc" fill-opacity=".85"/>
</g>
<g clip-path="url(#clip_19)">
<path transform="matrix(1,0,0,-1,0,359.86466)" d="M74.6638 321.00825H208.00617V330.0226H74.6638Z" fill="#1b7fcc" fill-opacity=".85"/>
</g>
<g clip-path="url(#clip_20)">
<path transform="matrix(1,0,0,-1,0,359.86466)" d="M74.6638 75.49867H219.04253V84.51306H74.6638Z" fill="#e08214" fill-opacity=".85"/>
</g>
<g clip-path="url(#clip_21)">
<path transform="matrix(1,0,0,-1,0,359.86466)" d="M74.6638 96.709H358.78495V105.72339H74.6638Z" fill="#e08214" fill-opacity=".85"/>
</g>
<g clip-path="url(#clip_22)">
<path transform="matrix(1,0,0,-1,0,359.86466)" d="M74.6638 117.919338H119.27196V126.93372H74.6638Z" fill="#e08214" fill-opacity=".85"/>
</g>
<g clip-path="url(#clip_23)">
<path transform="matrix(1,0,0,-1,0,359.86466)" d="M74.6638 139.12966H124.47916V148.14405H74.6638Z" fill="#e08214" fill-opacity=".85"/>
</g>
<g clip-path="url(#clip_24)">
<path transform="matrix(1,0,0,-1,0,359.86466)" d="M74.6638 160.34H138.26091V169.35439H74.6638Z" fill="#e08214" fill-opacity=".85"/>
</g>
<g clip-path="url(#clip_25)">
<path transform="matrix(1,0,0,-1,0,359.86466)" d="M74.6638 181.55033H217.45226V190.56472H74.6638Z" fill="#e08214" fill-opacity=".85"/>
</g>
<g clip-path="url(#clip_26)">
<path transform="matrix(1,0,0,-1,0,359.86466)" d="M74.6638 202.76065H192.43698V211.77504H74.6638Z" fill="#e08214" fill-opacity=".85"/>
</g>
<g clip-path="url(#clip_27)">
<path transform="matrix(1,0,0,-1,0,359.86466)" d="M74.6638 223.97098H236.22412V232.98537H74.6638Z" fill="#e08214" fill-opacity=".85"/>
</g>
<g clip-path="url(#clip_28)">
<path transform="matrix(1,0,0,-1,0,359.86466)" d="M74.6638 245.1813H102.246639V254.1957H74.6638Z" fill="#e08214" fill-opacity=".85"/>
</g>
<g clip-path="url(#clip_29)">
<path transform="matrix(1,0,0,-1,0,359.86466)" d="M74.6638 266.39164H125.90748V275.40605H74.6638Z" fill="#e08214" fill-opacity=".85"/>
</g>
<g clip-path="url(#clip_30)">
<path transform="matrix(1,0,0,-1,0,359.86466)" d="M74.6638 287.60197H119.87948V296.61637H74.6638Z" fill="#e08214" fill-opacity=".85"/>
</g>
<g clip-path="url(#clip_31)">
<path transform="matrix(1,0,0,-1,0,359.86466)" d="M74.6638 308.8123H94.57566V317.8267H74.6638Z" fill="#e08214" fill-opacity=".85"/>
</g>
<g clip-path="url(#clip_32)">
<path transform="matrix(1,0,0,-1,0,359.86466)" d="M74.6638 330.0226H108.41532V339.03703H74.6638Z" fill="#e08214" fill-opacity=".85"/>
</g>
<path transform="matrix(1,0,0,-1,0,359.86466)" stroke-width=".8" stroke-linecap="square" stroke-miterlimit="10" stroke-linejoin="miter" fill="none" stroke="#000000" d="M82.21562 52.856649V352.66465"/>
<path transform="matrix(1,0,0,-1,0,359.86466)" stroke-width=".8" stroke-linecap="square" stroke-miterlimit="10" stroke-linejoin="miter" fill="none" stroke="#000000" d="M82.21562 52.856649H696.30776"/>
<path transform="matrix(1,0,0,-1,0,359.86466)" stroke-width="1.4" stroke-linecap="round" stroke-linejoin="round" fill="none" stroke="#999999" d="M92.49747 16.879689C85.643718 16.879689 79.31171 16.879689 73.50145 16.879689"/>
<path transform="matrix(1,0,0,-1,0,359.86466)" stroke-width="1.4" stroke-linecap="round" stroke-linejoin="round" fill="none" stroke="#999999" d="M78.301448 14.479688 73.50145 16.879689 78.301448 19.279688"/>
<use data-text="l" xlink:href="#font_33_108" transform="matrix(20,0,0,-20,100.63839,348.5084)" fill="#999999"/>
<use data-text="e" xlink:href="#font_33_101" transform="matrix(20,0,0,-20,107.03839,348.5084)" fill="#999999"/>
<use data-text="s" xlink:href="#font_33_115" transform="matrix(20,0,0,-20,118.87839,348.5084)" fill="#999999"/>
<use data-text="s" xlink:href="#font_33_115" transform="matrix(20,0,0,-20,129.1384,348.5084)" fill="#999999"/>
<use data-text=" " xlink:href="#font_33_32" transform="matrix(20,0,0,-20,139.39839,348.5084)" fill="#999999"/>
<use data-text="s" xlink:href="#font_33_115" transform="matrix(20,0,0,-20,145.75839,348.5084)" fill="#999999"/>
<use data-text="e" xlink:href="#font_33_101" transform="matrix(20,0,0,-20,156.0184,348.5084)" fill="#999999"/>
<use data-text="n" xlink:href="#font_33_110" transform="matrix(20,0,0,-20,167.8584,348.5084)" fill="#999999"/>
<use data-text="s" xlink:href="#font_33_115" transform="matrix(20,0,0,-20,180.7384,348.5084)" fill="#999999"/>
<use data-text="i" xlink:href="#font_33_105" transform="matrix(20,0,0,-20,190.9984,348.5084)" fill="#999999"/>
<use data-text="t" xlink:href="#font_33_116" transform="matrix(20,0,0,-20,197.3984,348.5084)" fill="#999999"/>
<use data-text="i" xlink:href="#font_33_105" transform="matrix(20,0,0,-20,205.4384,348.5084)" fill="#999999"/>
<use data-text="v" xlink:href="#font_33_118" transform="matrix(20,0,0,-20,211.83841,348.5084)" fill="#999999"/>
<use data-text="e" xlink:href="#font_33_101" transform="matrix(20,0,0,-20,223.1384,348.5084)" fill="#999999"/>
<path transform="matrix(1,0,0,-1,0,359.86466)" stroke-width="1.4" stroke-linecap="round" stroke-linejoin="round" fill="none" stroke="#999999" d="M686.02597 16.879689C692.8797 16.879689 699.2117 16.879689 705.0219 16.879689"/>
<path transform="matrix(1,0,0,-1,0,359.86466)" stroke-width="1.4" stroke-linecap="round" stroke-linejoin="round" fill="none" stroke="#999999" d="M700.2219 19.279688 705.0219 16.879689 700.2219 14.479688"/>
<use data-text="m" xlink:href="#font_33_109" transform="matrix(20,0,0,-20,529.90066,348.5084)" fill="#999999"/>
<use data-text="o" xlink:href="#font_33_111" transform="matrix(20,0,0,-20,548.86068,348.5084)" fill="#999999"/>
<use data-text="r" xlink:href="#font_33_114" transform="matrix(20,0,0,-20,560.90066,348.5084)" fill="#999999"/>
<use data-text="e" xlink:href="#font_33_101" transform="matrix(20,0,0,-20,570.46066,348.5084)" fill="#999999"/>
<use data-text=" " xlink:href="#font_33_32" transform="matrix(20,0,0,-20,582.30068,348.5084)" fill="#999999"/>
<use data-text="s" xlink:href="#font_33_115" transform="matrix(20,0,0,-20,588.66067,348.5084)" fill="#999999"/>
<use data-text="e" xlink:href="#font_33_101" transform="matrix(20,0,0,-20,598.92068,348.5084)" fill="#999999"/>
<use data-text="n" xlink:href="#font_33_110" transform="matrix(20,0,0,-20,610.7606,348.5084)" fill="#999999"/>
<use data-text="s" xlink:href="#font_33_115" transform="matrix(20,0,0,-20,623.6406,348.5084)" fill="#999999"/>
<use data-text="i" xlink:href="#font_33_105" transform="matrix(20,0,0,-20,633.90066,348.5084)" fill="#999999"/>
<use data-text="t" xlink:href="#font_33_116" transform="matrix(20,0,0,-20,640.30068,348.5084)" fill="#999999"/>
<use data-text="i" xlink:href="#font_33_105" transform="matrix(20,0,0,-20,648.34066,348.5084)" fill="#999999"/>
<use data-text="v" xlink:href="#font_33_118" transform="matrix(20,0,0,-20,654.74069,348.5084)" fill="#999999"/>
<use data-text="e" xlink:href="#font_33_101" transform="matrix(20,0,0,-20,666.04067,348.5084)" fill="#999999"/>
<g>
<path transform="matrix(1,0,0,-1,0,359.86466)" d="M502.29216 296.22715H685.80776C687.80776 296.22715 688.80776 297.22715 688.80776 299.22715V342.16465C688.80776 344.16465 687.80776 345.16465 685.80776 345.16465H502.29216C500.29216 345.16465 499.29216 344.16465 499.29216 342.16465V299.22715C499.29216 297.22715 500.29216 296.22715 502.29216 296.22715Z" fill="#ffffff" fill-opacity=".9"/>
<path transform="matrix(1,0,0,-1,0,359.86466)" stroke-width="1" stroke-linecap="butt" stroke-miterlimit="10" stroke-linejoin="miter" fill="none" stroke="#cccccc" stroke-opacity=".9" d="M502.29216 296.22715H685.80776C687.80776 296.22715 688.80776 297.22715 688.80776 299.22715V342.16465C688.80776 344.16465 687.80776 345.16465 685.80776 345.16465H502.29216C500.29216 345.16465 499.29216 344.16465 499.29216 342.16465V299.22715C499.29216 297.22715 500.29216 296.22715 502.29216 296.22715Z"/>
</g>
<path transform="matrix(1,0,0,-1,0,359.86466)" d="M505.29216 327.77403H535.2921V338.27403H505.29216Z" fill="#1b7fcc" fill-opacity=".85"/>
<use data-text="S" xlink:href="#font_2_83" transform="matrix(15,0,0,-15,547.2921,32.090639)"/>
<use data-text="o" xlink:href="#font_2_111" transform="matrix(15,0,0,-15,557.56716,32.090639)"/>
<use data-text="u" xlink:href="#font_2_117" transform="matrix(15,0,0,-15,566.5971,32.090639)"/>
<use data-text="r" xlink:href="#font_2_114" transform="matrix(15,0,0,-15,576.25717,32.090639)"/>
<use data-text="c" xlink:href="#font_2_99" transform="matrix(15,0,0,-15,583.4271,32.090639)"/>
<use data-text="e" xlink:href="#font_2_101" transform="matrix(15,0,0,-15,591.82717,32.090639)"/>
<use data-text=" " xlink:href="#font_2_32" transform="matrix(15,0,0,-15,600.7071,32.090639)"/>
<use data-text="s" xlink:href="#font_2_115" transform="matrix(15,0,0,-15,605.4771,32.090639)"/>
<use data-text="e" xlink:href="#font_2_101" transform="matrix(15,0,0,-15,613.1721,32.090639)"/>
<use data-text="n" xlink:href="#font_2_110" transform="matrix(15,0,0,-15,622.0521,32.090639)"/>
<use data-text="s" xlink:href="#font_2_115" transform="matrix(15,0,0,-15,631.7121,32.090639)"/>
<use data-text="i" xlink:href="#font_2_105" transform="matrix(15,0,0,-15,639.4071,32.090639)"/>
<use data-text="t" xlink:href="#font_2_116" transform="matrix(15,0,0,-15,644.20718,32.090639)"/>
<use data-text="i" xlink:href="#font_2_105" transform="matrix(15,0,0,-15,650.2371,32.090639)"/>
<use data-text="v" xlink:href="#font_2_118" transform="matrix(15,0,0,-15,655.0371,32.090639)"/>
<use data-text="i" xlink:href="#font_2_105" transform="matrix(15,0,0,-15,663.51217,32.090639)"/>
<use data-text="t" xlink:href="#font_2_116" transform="matrix(15,0,0,-15,668.31216,32.090639)"/>
<use data-text="y" xlink:href="#font_2_121" transform="matrix(15,0,0,-15,674.3421,32.090639)"/>
<path transform="matrix(1,0,0,-1,0,359.86466)" d="M505.29216 305.55528H535.2921V316.05528H505.29216Z" fill="#e08214" fill-opacity=".85"/>
<use data-text="R" xlink:href="#font_2_82" transform="matrix(15,0,0,-15,547.2921,54.309389)"/>
<use data-text="o" xlink:href="#font_2_111" transform="matrix(15,0,0,-15,558.5871,54.309389)"/>
<use data-text="o" xlink:href="#font_2_111" transform="matrix(15,0,0,-15,567.6171,54.309389)"/>
<use data-text="m" xlink:href="#font_2_109" transform="matrix(15,0,0,-15,576.6471,54.309389)"/>
<use data-text=" " xlink:href="#font_2_32" transform="matrix(15,0,0,-15,590.8671,54.309389)"/>
<use data-text="s" xlink:href="#font_2_115" transform="matrix(15,0,0,-15,595.63717,54.309389)"/>
<use data-text="e" xlink:href="#font_2_101" transform="matrix(15,0,0,-15,603.3321,54.309389)"/>
<use data-text="n" xlink:href="#font_2_110" transform="matrix(15,0,0,-15,612.2121,54.309389)"/>
<use data-text="s" xlink:href="#font_2_115" transform="matrix(15,0,0,-15,621.87216,54.309389)"/>
<use data-text="i" xlink:href="#font_2_105" transform="matrix(15,0,0,-15,629.56716,54.309389)"/>
<use data-text="t" xlink:href="#font_2_116" transform="matrix(15,0,0,-15,634.3671,54.309389)"/>
<use data-text="i" xlink:href="#font_2_105" transform="matrix(15,0,0,-15,640.3971,54.309389)"/>
<use data-text="v" xlink:href="#font_2_118" transform="matrix(15,0,0,-15,645.19717,54.309389)"/>
<use data-text="i" xlink:href="#font_2_105" transform="matrix(15,0,0,-15,653.6721,54.309389)"/>
<use data-text="t" xlink:href="#font_2_116" transform="matrix(15,0,0,-15,658.4721,54.309389)"/>
<use data-text="y" xlink:href="#font_2_121" transform="matrix(15,0,0,-15,664.50216,54.309389)"/>
</svg>
